<svg width="198" height="140" viewBox="0 0 198 140" fill="none" xmlns="http://www.w3.org/2000/svg">
<g clip-path="url(#clip0_1437_39470)">
<path opacity="0.1" d="M65.7093 139.921C75.3345 139.921 83.1373 138.668 83.1373 137.122C83.1373 135.576 75.3345 134.323 65.7093 134.323C56.084 134.323 48.2812 135.576 48.2812 137.122C48.2812 138.668 56.084 139.921 65.7093 139.921Z" fill="#00B3A6"/>
<path opacity="0.1" d="M160.446 140C172.456 140 182.193 138.747 182.193 137.201C182.193 135.655 172.456 134.402 160.446 134.402C148.435 134.402 138.698 135.655 138.698 137.201C138.698 138.747 148.435 140 160.446 140Z" fill="#00B3A6"/>
<path opacity="0.1" d="M2.47554 60.4901H20.6279V85.2316H3.80446C3.75975 85.4856 3.71682 85.7414 3.67032 85.9972H20.6279V105.951C20.5975 105.942 20.5707 105.931 20.5421 105.92C20.0627 105.731 19.587 105.53 19.1112 105.316L18.8071 105.178C18.3302 104.953 17.8532 104.714 17.3763 104.463C17.2099 104.375 17.0436 104.284 16.879 104.191C14.2312 102.707 11.8257 100.828 9.74615 98.6174C9.68534 98.5584 9.6281 98.4958 9.56729 98.4386C9.27754 98.1238 8.99315 97.8054 8.71771 97.4799L8.41365 97.1222C8.08813 96.7233 7.77334 96.3137 7.46749 95.8988C7.42277 95.838 7.37985 95.7771 7.33334 95.7199C6.08947 93.9952 5.05665 92.1278 4.25697 90.1574C4.23193 90.0984 4.21047 90.034 4.18722 89.9786C3.94159 89.3466 3.72398 88.7087 3.53439 88.0648C3.45211 87.7947 3.37341 87.5282 3.30545 87.2474C3.28041 87.1651 3.25894 87.0846 3.23927 87.0041C2.22335 83.0388 2.10352 78.9197 2.10352 74.8292C2.10352 74.3517 2.10352 73.8723 2.10352 73.3983C2.10352 71.7439 2.12319 70.0787 2.15181 68.4153C2.15181 67.9843 2.16969 67.555 2.17864 67.1222C2.20368 66.024 2.23945 64.9258 2.28595 63.8276C2.29668 63.5218 2.31099 63.2177 2.32709 62.9137C2.32709 62.7384 2.33603 62.5631 2.35392 62.3878C2.39684 61.7511 2.43262 61.1197 2.47554 60.4901Z" fill="#00B3A6"/>
<path opacity="0.1" d="M20.628 32.9422H10.6709C12.2895 30.4088 14.058 27.9743 15.9669 25.6519C17.4461 23.8347 19.0075 22.064 20.628 20.3577V32.9422Z" fill="#00B3A6"/>
<path opacity="0.1" d="M20.6274 33.7078V59.7246H2.53223C2.53223 59.6495 2.54475 59.5726 2.55011 59.4974C2.56621 59.2917 2.58231 59.0861 2.60019 58.8822C2.61987 58.6425 2.64133 58.401 2.66458 58.1667C2.68783 57.9324 2.71287 57.6462 2.7397 57.3869C2.76653 57.1276 2.79157 56.8646 2.82198 56.6053C2.85238 56.3459 2.87921 56.0866 2.91141 55.829C2.9436 55.5715 2.97222 55.3103 3.0062 55.0528C3.03303 54.8382 3.06165 54.6253 3.09027 54.4107C3.1314 54.1084 3.17433 53.8043 3.22083 53.5039C3.22083 53.4592 3.23335 53.4126 3.24051 53.3697C3.56696 51.17 4.01177 48.9896 4.57301 46.8378C5.16048 44.5806 5.91067 42.3689 6.81768 40.22C7.78167 37.9721 8.91036 35.7984 10.1945 33.7167L20.6274 33.7078Z" fill="#00B3A6"/>
<path opacity="0.1" d="M24.9619 60.4883V85.2316H63.7332V60.4883H24.9619ZM24.9619 85.9953V107.244C25.1837 107.29 25.4037 107.335 25.6219 107.372C25.9188 107.43 26.2139 107.482 26.5162 107.526C26.5734 107.535 26.6325 107.544 26.6951 107.55C26.8131 107.569 26.9347 107.585 27.0528 107.601C27.3515 107.643 27.6484 107.677 27.9471 107.703C28.0884 107.718 28.2315 107.73 28.3745 107.741L28.7197 107.768C28.9075 107.782 29.0936 107.793 29.2778 107.798C29.3923 107.798 29.5067 107.809 29.6248 107.812C29.7142 107.812 29.8036 107.812 29.8966 107.812C29.9896 107.812 30.122 107.812 30.2347 107.812C30.3885 107.812 30.5423 107.812 30.6944 107.812H30.9C31.0539 107.812 31.2077 107.812 31.3597 107.798H31.3704C31.476 107.798 31.5833 107.798 31.6906 107.784C31.7204 107.786 31.7502 107.786 31.78 107.784C31.8695 107.784 31.9589 107.784 32.0447 107.771H32.1073L32.7065 107.725C32.9033 107.707 33.1018 107.684 33.3021 107.662L33.7099 107.614C35.369 107.381 37.0096 107.032 38.6196 106.569C42.2361 105.561 45.774 104.149 49.3887 103.116C54.0623 101.783 59.226 101.129 63.7422 102.758V85.9953H24.9619ZM63.7332 32.9422V0.00182639C59.4884 -0.0441624 55.2551 0.452314 51.1362 1.4792C41.3186 3.94566 32.5098 9.29533 24.9619 16.1277V32.9404H26.9079V33.7042H24.9619V59.7245H63.7332V33.706H34.8975V32.9422H63.7332ZM113.533 21.8154C111.104 21.7296 108.689 20.9605 106.506 19.7729C102.329 17.5014 98.9935 13.9939 95.2661 11.0338C87.5215 4.86857 77.9168 1.14831 68.0634 0.2254V32.9422H123.411L123.549 32.7974L113.533 21.8154ZM118.575 20.9211L123.921 26.7877V19.383C122.131 19.6047 120.562 20.1324 118.582 20.914L118.575 20.9211ZM123.921 112.52V85.9953H112.53C112.499 85.8826 112.469 85.7682 112.433 85.6537C112.467 85.7682 112.496 85.8826 112.528 85.9953H68.0706V105.178C68.4927 105.491 68.9094 105.82 69.3226 106.154C69.7679 106.512 70.2079 106.89 70.6497 107.26L71.0951 107.628C71.3079 107.807 71.5225 107.986 71.739 108.154C72.1682 108.502 72.6017 108.846 73.0393 109.184C73.2557 109.363 73.4775 109.524 73.6975 109.692C77.1901 112.363 80.8744 114.772 84.7206 116.902C85.5827 117.379 86.4525 117.845 87.3301 118.299C87.915 118.598 88.5034 118.895 89.0937 119.183C89.9808 119.615 90.8751 120.033 91.7766 120.435C100.087 124.165 108.876 126.725 117.89 128.041C119.892 128.337 121.902 128.57 123.919 128.739V112.518H124.098L123.921 112.52ZM68.0706 33.706V59.7245H123.928V33.706H68.0706ZM68.0706 60.4883V85.2316H123.928V60.4883H68.0706ZM128.264 19.3508V27.6105L135.087 20.1234C132.827 19.7586 130.552 19.498 128.264 19.3418V19.3508ZM128.264 60.4972V85.2316H182.592V60.4883L128.264 60.4972ZM182.394 114.484L182.585 85.9953H128.264V129.023C131.763 129.17 135.268 129.129 138.763 128.898H138.824C140.493 128.793 142.155 128.641 143.808 128.44H143.846C152.669 127.413 161.297 125.111 169.459 121.606M193.068 64.5627C192.864 64.0815 192.651 63.604 192.435 63.1318C192.031 62.2375 191.603 61.3682 191.163 60.499H186.924V85.2316H197.642C197.636 78.2275 195.864 71.0731 193.073 64.5537L193.068 64.5627ZM186.924 86.0042V110.508C189.943 107.614 192.494 104.303 194.331 100.519C196.54 95.9613 197.55 91.0266 197.633 86.0007L186.924 86.0042ZM186.924 53.2874V59.7263H190.766C189.604 57.5098 188.323 55.3574 186.93 53.2785L186.924 53.2874ZM150.079 24.205C149.797 24.0977 149.514 23.9886 149.23 23.883C146.23 22.7754 143.165 21.8543 140.052 21.125L129.611 32.5845L129.41 32.7974L129.544 32.944H166.708C161.532 29.3812 155.952 26.4448 150.085 24.196L150.079 24.205ZM167.797 33.7149H129.026L128.264 34.4125V59.7245H134.942H134.953H182.599V47.4638C178.289 42.2511 173.315 37.6258 167.802 33.706L167.797 33.7149Z" fill="#00B3A6"/>
<path opacity="0.1" d="M20.6274 46.8306V59.7245H2.53223C2.53223 59.6494 2.54475 59.5725 2.55011 59.4974C2.56621 59.2917 2.58231 59.086 2.60019 58.8821C2.61987 58.6424 2.64133 58.4009 2.66458 58.1666C2.68783 57.9323 2.71287 57.6462 2.7397 57.3868C2.76653 57.1275 2.79157 56.8645 2.82198 56.6052C2.85238 56.3459 2.87921 56.0865 2.91141 55.829C2.9436 55.5714 2.97222 55.3103 3.0062 55.0527C3.03303 54.8381 3.06165 54.6252 3.09027 54.4106C3.1314 54.1083 3.17433 53.8043 3.22083 53.5038C3.22083 53.4591 3.23335 53.4126 3.24051 53.3696C3.56696 51.17 4.01177 48.9895 4.57301 46.8377L20.6274 46.8306Z" fill="#00B3A6"/>
<path opacity="0.1" d="M2.47554 60.4901H20.6279V85.2316H3.80446C3.75975 85.4856 3.71682 85.7414 3.67032 85.9972H20.6279V105.951C20.5975 105.942 20.5707 105.931 20.5421 105.92C20.0627 105.731 19.587 105.53 19.1112 105.316L18.8071 105.178C18.3302 104.953 17.8532 104.714 17.3763 104.463C17.2099 104.375 17.0436 104.284 16.879 104.191C14.2312 102.707 11.8257 100.828 9.74615 98.6174C9.68534 98.5584 9.6281 98.4958 9.56729 98.4386C9.27754 98.1238 8.99315 97.8054 8.71771 97.4799L8.41365 97.1222C8.08813 96.7233 7.77334 96.3137 7.46749 95.8988C7.42277 95.838 7.37985 95.7771 7.33334 95.7199C6.08947 93.9952 5.05665 92.1278 4.25697 90.1574C4.23193 90.0984 4.21047 90.034 4.18722 89.9786C3.94159 89.3466 3.72398 88.7087 3.53439 88.0648C3.45211 87.7947 3.37341 87.5282 3.30545 87.2474C3.28041 87.1651 3.25894 87.0846 3.23927 87.0041C2.22335 83.0388 2.10352 78.9197 2.10352 74.8292C2.10352 74.3517 2.10352 73.8723 2.10352 73.3983C2.10352 71.7439 2.12319 70.0787 2.15181 68.4153C2.15181 67.9843 2.16969 67.555 2.17864 67.1222C2.20368 66.024 2.23945 64.9258 2.28595 63.8276C2.29668 63.5218 2.31099 63.2177 2.32709 62.9137C2.32709 62.7384 2.33603 62.5631 2.35392 62.3878C2.39684 61.7511 2.43262 61.1197 2.47554 60.4901Z" fill="#00B3A6"/>
<path opacity="0.1" d="M38.6106 37.4316V59.7246H24.9619V37.4316H26.9079V29.8838H34.8957V37.4316H38.6106Z" fill="#00B3A6"/>
<path opacity="0.1" d="M38.6098 60.4883H24.9629V85.2298H38.6098V60.4883Z" fill="#00B3A6"/>
<path opacity="0.1" d="M24.9619 85.9971H38.6106V106.566C37.0006 107.028 35.36 107.377 33.701 107.609L33.2932 107.659C33.0928 107.682 32.8943 107.702 32.6976 107.721C32.5008 107.741 32.2969 107.755 32.0984 107.768H32.0358C31.9499 107.768 31.8569 107.778 31.7729 107.78H31.6816C31.5743 107.78 31.467 107.791 31.3597 107.795C31.2077 107.804 31.0556 107.805 30.9 107.807C30.8339 107.807 30.7713 107.807 30.7051 107.807C30.5513 107.807 30.3992 107.807 30.2454 107.807H29.9074C29.8161 107.807 29.7285 107.807 29.6337 107.807L29.2885 107.795C29.1097 107.795 28.9165 107.775 28.7305 107.762L28.3871 107.737L27.9596 107.698C27.6591 107.671 27.3604 107.637 27.0653 107.596L26.7076 107.546L26.5287 107.521C26.23 107.474 25.9349 107.424 25.6344 107.367C25.4144 107.33 25.1962 107.283 24.9744 107.238L24.9619 85.9971Z" fill="#00B3A6"/>
<path opacity="0.1" d="M123.928 34.7988H112.674V59.7228H123.928V34.7988Z" fill="#00B3A6"/>
<path opacity="0.1" d="M123.93 60.4883V85.2316H68.0703V74.5591H97.8235V80.855H112.674V60.4883H123.93Z" fill="#00B3A6"/>
<path opacity="0.1" d="M124.107 112.526H123.928V128.757C121.913 128.587 119.904 128.355 117.9 128.061C108.882 126.741 100.09 124.175 91.7762 120.438C89.376 119.358 87.0246 118.179 84.7221 116.901C80.8759 114.77 77.1911 112.36 73.6972 109.691C72.8196 109.018 71.9533 108.33 71.0984 107.627C70.5064 107.138 69.9179 106.638 69.3223 106.151C68.9092 105.817 68.4924 105.488 68.0703 105.173V85.9973H112.526C112.495 85.8828 112.465 85.7683 112.433 85.6556C112.467 85.7683 112.499 85.8828 112.529 85.9973H123.928V112.515C123.989 112.517 124.048 112.522 124.107 112.526Z" fill="#00B3A6"/>
<path opacity="0.1" d="M153.279 32.9422H145.945V30.6635H149.233V23.8759C149.518 23.9796 149.802 24.0863 150.084 24.196V30.6635H153.279V32.9422Z" fill="#00B3A6"/>
<path opacity="0.1" d="M170.947 59.7246H134.946C134.946 59.7246 134.946 59.7246 134.958 59.7335L134.942 59.7246H128.264V34.8006H130.156V53.2231H138.804V42.3127H145.947V33.7078H153.281V42.3198H160.424V53.2302H170.947V59.7246Z" fill="#00B3A6"/>
<path opacity="0.1" d="M128.264 60.4883V85.2316H170.947V60.4883H128.264ZM182.533 114.357L182.592 94.7719H170.947V86.0078H128.264V129.023C131.763 129.17 135.268 129.129 138.763 128.898H138.824C140.493 128.793 142.154 128.641 143.808 128.44H143.846C152.669 127.413 161.297 125.111 169.458 121.606" fill="#00B3A6"/>
<path opacity="0.1" d="M187.682 85.9971H197.639C197.551 91.0212 196.543 95.9559 194.335 100.513C192.499 104.3 189.946 107.61 186.931 110.503V94.7629H187.682V85.9971Z" fill="#00B3A6"/>
<path opacity="0.1" d="M197.645 85.2317H187.683V64.5538H193.073C195.864 71.0732 197.636 78.2276 197.645 85.2317Z" fill="#00B3A6"/>
<path opacity="0.1" d="M123.93 41.7278H117.9V49.5421H123.93V41.7278Z" fill="#00B3A6"/>
<path opacity="0.1" d="M123.93 57.9252H117.9V59.7245H123.93V57.9252Z" fill="#00B3A6"/>
<path opacity="0.1" d="M123.93 60.4883H117.9V65.7378H123.93V60.4883Z" fill="#00B3A6"/>
<path opacity="0.1" d="M123.93 74.1227H117.9V81.937H123.93V74.1227Z" fill="#00B3A6"/>
<path opacity="0.1" d="M123.93 90.3201H117.9V98.1344H123.93V90.3201Z" fill="#00B3A6"/>
<path opacity="0.1" d="M123.928 112.515C123.989 112.515 124.048 112.515 124.107 112.525H123.928V114.341H117.9V106.518H123.928V112.515Z" fill="#00B3A6"/>
<path opacity="0.1" d="M123.928 122.712V128.748C121.913 128.578 119.904 128.346 117.9 128.052V122.712H123.928Z" fill="#00B3A6"/>
<path opacity="0.1" d="M93.9101 84.6575H68.0703V85.2316H93.9101V84.6575Z" fill="#00B3A6"/>
<path opacity="0.1" d="M93.9101 85.9952H68.0703V88.1952H93.9101V85.9952Z" fill="#00B3A6"/>
<path opacity="0.1" d="M93.9101 95.407H68.0703V98.9448H93.9101V95.407Z" fill="#00B3A6"/>
<path opacity="0.1" d="M93.908 106.156V109.694H73.697C72.8194 109.024 71.9525 108.336 71.0964 107.63C70.5044 107.142 69.9177 106.641 69.3203 106.156H93.908Z" fill="#00B3A6"/>
<path opacity="0.1" d="M93.9079 116.904V120.438H91.7741C89.3762 119.357 87.0254 118.177 84.7217 116.899L93.9079 116.904Z" fill="#00B3A6"/>
<path opacity="0.1" d="M143.85 62.8867H138.764V67.9735H143.85V62.8867Z" fill="#00B3A6"/>
<path opacity="0.1" d="M33.7127 39.1862H28.626V44.2729H33.7127V39.1862Z" fill="#00B3A6"/>
<path opacity="0.1" d="M33.7127 51.0016H28.626V56.0883H33.7127V51.0016Z" fill="#00B3A6"/>
<path opacity="0.1" d="M33.7127 62.817H28.626V67.9038H33.7127V62.817Z" fill="#00B3A6"/>
<path opacity="0.1" d="M33.7127 74.6306H28.626V79.7174H33.7127V74.6306Z" fill="#00B3A6"/>
<path opacity="0.1" d="M33.7127 86.446H28.626V91.5328H33.7127V86.446Z" fill="#00B3A6"/>
<path opacity="0.1" d="M33.7127 98.2615H28.626V103.348H33.7127V98.2615Z" fill="#00B3A6"/>
<path opacity="0.1" d="M163.269 62.8867H158.183V67.9735H163.269V62.8867Z" fill="#00B3A6"/>
<path opacity="0.1" d="M143.85 75.4337H138.764V80.5205H143.85V75.4337Z" fill="#00B3A6"/>
<path opacity="0.1" d="M163.269 75.4337H158.183V80.5205H163.269V75.4337Z" fill="#00B3A6"/>
<path opacity="0.1" d="M143.85 87.9788H138.764V93.0655H143.85V87.9788Z" fill="#00B3A6"/>
<path opacity="0.1" d="M163.269 87.9788H158.183V93.0655H163.269V87.9788Z" fill="#00B3A6"/>
<path opacity="0.1" d="M143.85 100.526H138.764V105.613H143.85V100.526Z" fill="#00B3A6"/>
<path opacity="0.1" d="M163.269 100.526H158.183V105.613H163.269V100.526Z" fill="#00B3A6"/>
<path opacity="0.1" d="M143.85 113.073H138.764V118.16H143.85V113.073Z" fill="#00B3A6"/>
<path opacity="0.1" d="M163.269 113.073H158.183V118.16H163.269V113.073Z" fill="#00B3A6"/>
<path opacity="0.1" d="M138.764 128.898V125.618H143.849V128.431L138.764 128.898Z" fill="#00B3A6"/>
<path opacity="0.1" d="M3.21973 53.3661V56.2761H20.6281V53.3661H3.21973ZM4.95466 56.0937H3.53452V53.5449H4.96539L4.95466 56.0937ZM6.6878 56.0937H5.25693V53.5449H6.6878V56.0937ZM8.41737 56.0937H6.9865V53.5449H8.41737V56.0937ZM10.1505 56.0937H8.72143V53.5449H10.1523L10.1505 56.0937ZM11.8819 56.0937H10.451V53.5449H11.8819V56.0937ZM13.615 56.0937H12.1841V53.5449H13.615V56.0937ZM15.3482 56.0937H13.9173V53.5449H15.3482V56.0937ZM17.0795 56.0937H15.6486V53.5449H17.0795V56.0937ZM18.8109 56.0937H17.38V53.5449H18.8109V56.0937ZM20.5422 56.0937H19.1114V53.5449H20.5422V56.0937Z" fill="#00B3A6"/>
<path opacity="0.1" d="M3.21973 61.8334V64.7434H20.6281V61.8334H3.21973ZM4.95466 64.5592H3.53452V62.0176H4.96539L4.95466 64.5592ZM6.6878 64.5592H5.25693V62.0176H6.6878V64.5592ZM8.41737 64.5592H6.9865V62.0176H8.41737V64.5592ZM10.1505 64.5592H8.72143V62.0176H10.1523L10.1505 64.5592ZM11.8819 64.5592H10.451V62.0176H11.8819V64.5592ZM13.615 64.5592H12.1841V62.0176H13.615V64.5592ZM15.3482 64.5592H13.9173V62.0176H15.3482V64.5592ZM17.0795 64.5592H15.6486V62.0176H17.0795V64.5592ZM18.8109 64.5592H17.38V62.0176H18.8109V64.5592ZM20.5422 64.5592H19.1114V62.0176H20.5422V64.5592Z" fill="#00B3A6"/>
<path opacity="0.1" d="M3.21973 70.3042V73.2196H20.6281V70.3042H3.21973ZM4.95466 73.03H3.53452V70.4866H4.96539L4.95466 73.03ZM6.6878 73.03H5.25693V70.4866H6.6878V73.03ZM8.41737 73.03H6.9865V70.4866H8.41737V73.03ZM10.1505 73.03H8.72143V70.4866H10.1523L10.1505 73.03ZM11.8819 73.03H10.451V70.4866H11.8819V73.03ZM13.615 73.03H12.1841V70.4866H13.615V73.03ZM15.3482 73.03H13.9173V70.4866H15.3482V73.03ZM17.0795 73.03H15.6486V70.4866H17.0795V73.03ZM18.8109 73.03H17.38V70.4866H18.8109V73.03ZM20.5422 73.03H19.1114V70.4866H20.5422V73.03Z" fill="#00B3A6"/>
<path opacity="0.1" d="M3.21973 78.7748V81.6812H20.6281V78.7748H3.21973ZM4.95466 81.5006H3.53452V78.9554H4.96539L4.95466 81.5006ZM6.6878 81.5006H5.25693V78.9554H6.6878V81.5006ZM8.41737 81.5006H6.9865V78.9554H8.41737V81.5006ZM10.1505 81.5006H8.72143V78.9554H10.1523L10.1505 81.5006ZM11.8819 81.5006H10.451V78.9554H11.8819V81.5006ZM13.615 81.5006H12.1841V78.9554H13.615V81.5006ZM15.3482 81.5006H13.9173V78.9554H15.3482V81.5006ZM17.0795 81.5006H15.6486V78.9554H17.0795V81.5006ZM18.8109 81.5006H17.38V78.9554H18.8109V81.5006ZM20.5422 81.5006H19.1114V78.9554H20.5422V81.5006Z" fill="#00B3A6"/>
<path opacity="0.1" d="M3.29492 87.2439C3.36468 87.5176 3.44337 87.7912 3.52565 88.0613V87.4263H4.95652V89.9697H4.191C4.21426 90.0287 4.23751 90.0931 4.26076 90.1486H20.6281V87.2439H3.29492ZM6.69324 89.9697H5.26237V87.4263H6.69324V89.9697ZM8.42281 89.9697H6.99193V87.4263H8.42281V89.9697ZM10.1559 89.9697H8.7215V87.4263H10.1524L10.1559 89.9697ZM11.8873 89.9697H10.4564V87.4263H11.8873V89.9697ZM13.6204 89.9697H12.1896V87.4263H13.6204V89.9697ZM15.3536 89.9697H13.9227V87.4263H15.3536V89.9697ZM17.0849 89.9697H15.6541V87.4263H17.0849V89.9697ZM18.8163 89.9697H17.3854V87.4263H18.8163V89.9697ZM20.5476 89.9697H19.1168V87.4263H20.5476V89.9697Z" fill="#00B3A6"/>
<path opacity="0.1" d="M7.33691 95.7146C7.38163 95.7718 7.42455 95.8362 7.47106 95.8935H8.41722V97.1151C8.51917 97.2367 8.61933 97.3583 8.72307 97.4728V95.8863H10.1539V98.4386H9.57444C9.63167 98.4976 9.68712 98.5602 9.7533 98.6175H20.6333V95.7146H7.33691ZM11.8817 98.4386H10.4508V95.897H11.8817V98.4386ZM13.6149 98.4386H12.184V95.897H13.6149V98.4386ZM15.348 98.4386H13.9171V95.897H15.348V98.4386ZM17.0794 98.4386H15.6485V95.897H17.0794V98.4386ZM18.8107 98.4386H17.3798V95.897H18.8107V98.4386ZM20.5421 98.4386H19.1112V95.897H20.5421V98.4386Z" fill="#00B3A6"/>
<path opacity="0.1" d="M16.8857 104.183C17.0485 104.276 17.2148 104.362 17.383 104.455V104.366H18.8138V105.171L19.1179 105.312V104.366H20.5488V105.913C20.5762 105.927 20.605 105.937 20.6346 105.945V104.183H16.8857Z" fill="#00B3A6"/>
<path opacity="0.1" d="M112.433 85.6537C112.467 85.7682 112.495 85.8827 112.528 85.9953C112.499 85.8827 112.469 85.7682 112.433 85.6537ZM26.915 32.9369V33.7006H34.9047V32.9369H26.915ZM112.433 85.6537C112.467 85.7682 112.495 85.8827 112.528 85.9953C112.499 85.8827 112.469 85.7682 112.433 85.6537ZM112.433 85.6537C112.467 85.7682 112.495 85.8827 112.528 85.9953C112.499 85.8827 112.469 85.7682 112.433 85.6537Z" fill="#00B3A6"/>
<path d="M82.5611 67.9074C82.5611 67.9074 81.8564 67.8091 81.8564 66.7824C81.8564 65.7558 81.352 63.8384 81.352 63.8384C81.352 63.8295 80.9156 60.4991 80.3128 59.9697C79.7101 59.4403 78.9356 56.3317 78.9356 56.3317C78.9356 56.3317 78.8033 54.645 78.5332 54.282C78.2631 53.9189 77.8982 53.0299 77.3599 51.7618C76.8215 50.4937 74.5768 49.6155 74.5768 49.6155C74.5768 49.6155 70.5185 47.2617 69.3685 46.4944C69.2639 46.4314 69.1662 46.3577 69.0769 46.2744C68.8766 46.0115 68.0038 46.0061 68.0038 46.0061C67.9125 45.4302 67.8249 44.7684 67.7963 44.1693C67.7963 44.1049 67.7963 44.0405 67.7873 43.9761C69.0697 43.2181 70.0357 42.0229 70.5078 40.61C70.5293 40.542 70.5471 40.4705 70.5668 40.4025C70.6437 40.3772 70.7144 40.3361 70.7744 40.2819C70.8345 40.2277 70.8826 40.1616 70.9156 40.0877C71.0193 39.857 71.0211 39.5869 71.1499 39.3723C71.3001 39.1183 71.5863 38.9824 71.8117 38.791C72.3804 38.3081 72.5271 37.4942 72.5003 36.7538C72.4824 36.1546 72.3858 35.55 72.4234 34.9544L72.4341 34.8042C72.4448 34.7148 72.4573 34.6253 72.4734 34.5395C72.5611 34.0959 72.7525 33.6774 72.8598 33.2374C72.9671 32.7974 72.9778 32.302 72.7274 31.9228C72.3608 31.3665 71.597 31.2556 70.9263 31.1984C70.1662 31.134 69.4865 31.2181 69 30.5867C68.7723 30.2567 68.5162 29.9473 68.2345 29.662C68.1343 29.569 67.1613 28.9752 67.1613 28.9358C66.2117 28.496 65.1353 28.4134 64.1297 28.7033C63.6253 28.85 63.1495 29.0897 62.638 29.2095C61.5344 29.4706 60.2645 29.188 59.3273 29.8194C58.8051 30.1771 58.4921 30.7459 58.1987 31.3004C57.9602 31.757 57.7182 32.2131 57.4726 32.6686C57.0773 33.418 56.6748 34.18 56.5085 35.0099C56.4735 35.1905 56.452 35.3734 56.4441 35.5572V35.5661C56.4441 35.6323 56.4441 35.6985 56.4441 35.7647V35.8487C56.4441 35.9113 56.4441 35.9722 56.4549 36.0276C56.4656 36.083 56.4638 36.1009 56.4692 36.1385C56.4745 36.176 56.4835 36.2601 56.4942 36.3173C56.5049 36.3746 56.5264 36.4747 56.5479 36.5534C56.5568 36.5874 56.5693 36.6196 56.58 36.6518C56.5979 36.7126 56.6194 36.7716 56.6426 36.8307C56.6552 36.8611 56.6677 36.8933 56.682 36.9237C56.7088 36.9863 56.741 37.0471 56.7732 37.1025C56.7875 37.1276 56.7983 37.1508 56.8126 37.1741C56.8625 37.2573 56.9174 37.3373 56.9771 37.4138C57.3599 37.8913 57.9233 38.1954 58.34 38.6425C58.34 38.6604 58.34 38.6783 58.34 38.6944C58.34 38.7445 58.34 38.7928 58.34 38.8428C58.3621 39.8401 58.6276 40.8168 59.1132 41.6881C59.5989 42.5593 60.2901 43.2987 61.1266 43.842C61.1266 43.9099 61.1356 43.9797 61.1392 44.0476C61.174 44.5786 61.1675 45.1114 61.1195 45.6413C61.0467 45.5555 60.9555 45.4872 60.8527 45.4414C60.7499 45.3955 60.6382 45.3734 60.5257 45.3766C60.4488 45.3728 60.3718 45.3794 60.2967 45.3962L60.2806 45.3837V45.3998C59.8871 45.4964 59.4024 45.906 58.9392 47.0704C58.9392 47.0704 57.5298 48.6586 56.4566 48.5924C55.3835 48.5263 52.6666 50.2451 52.6666 50.2451C52.6666 50.2451 50.0159 51.9657 49.4472 53.7186C49.1292 54.7125 48.7481 55.6851 48.306 56.6304L45.0293 63.3823L44.4248 68.7391C44.4248 68.7391 44.7593 71.1215 44.6931 71.4846C44.6269 71.8477 46.0685 75.1226 46.0685 75.1226C46.0685 75.1226 50.8315 83.4914 52.7775 83.9207L52.917 83.8223C53.0003 83.8658 53.0886 83.8989 53.1799 83.9207L53.5806 83.6381C53.6046 83.9531 53.5945 84.2697 53.5502 84.5825C53.2819 85.4088 53.6503 90.8014 54.119 91.8585C54.5876 92.9155 54.4212 106.775 54.4212 106.775L54.3551 107.999C54.3551 107.999 54.355 108.038 54.3711 108.106L54.3551 108.396L54.4033 108.421C54.4535 108.809 54.4372 109.203 54.3551 109.585C54.1869 110.122 54.119 111.638 54.119 111.638C54.119 111.638 52.7793 120.202 53.4143 121.923C54.0492 123.644 54.5894 125.529 54.5894 125.529C54.5894 125.529 55.2601 127.675 54.6215 128.042C53.983 128.408 52.1676 129.024 52.5414 129.918C52.8813 130.744 54.1708 132.959 54.3622 133.282L54.3461 133.452L54.0832 136.301C54.1258 136.678 54.2278 137.045 54.3855 137.389C54.6734 138.009 55.2332 138.653 56.2975 138.584C56.4763 138.571 56.6838 138.55 56.8841 138.523C58.8319 138.262 61.2304 137.392 61.2304 137.392C61.1059 137.313 60.9917 137.219 60.8905 137.112C60.7948 137.019 60.719 136.908 60.6676 136.785C60.6162 136.662 60.5905 136.529 60.5919 136.396C60.6205 135.877 59.6493 133.406 59.4078 132.798C59.3703 132.71 59.3506 132.66 59.3506 132.66C59.3506 132.66 61.5648 130.345 61.1964 128.294C61.1964 128.294 58.746 126.863 59.5527 126.078C60.3593 125.293 61.8009 123.037 61.8009 123.037C61.8009 123.037 61.8671 114.604 61.8009 113.345C61.7319 112.471 61.7734 111.592 61.9244 110.728C61.9512 110.598 61.9834 110.471 62.0174 110.345C63.1329 110.512 64.2591 110.597 65.3871 110.601C65.7984 110.601 66.217 110.601 66.6391 110.576C66.6391 110.695 66.6444 110.824 66.6552 110.962C66.7482 113.051 66.9217 116.715 67.063 118.076C67.2633 120.027 68.3704 125.285 68.3704 125.285C68.3704 125.285 66.2581 126.641 68.7389 129.982C68.7389 129.982 68.7389 131.193 68.5743 131.368C68.3987 131.941 68.2571 132.524 68.1504 133.114C68.0467 133.744 68.0038 134.38 68.1719 134.711C68.5743 135.502 70.9889 135.437 70.9889 135.437L71.0479 135.427C71.5038 135.38 71.9645 135.424 72.4032 135.556C72.842 135.688 73.2501 135.906 73.6038 136.198C74.5214 136.935 78.0038 136.611 79.8889 136.376C80.6276 136.283 81.1213 136.198 81.1213 136.198C81.1452 136.114 81.1537 136.027 81.1463 135.94C81.1266 135.477 80.7635 134.461 78.3025 133.554C78.3025 133.554 75.988 131.998 76.0202 130.642H75.9719H75.7036C75.8986 130.632 76.0238 130.642 76.0238 130.642C76.0238 130.642 75.117 127.333 75.4872 127.065C75.8575 126.797 74.7485 123.13 74.7485 123.13C74.7485 123.13 74.1136 116.977 74.0796 116.546C74.081 116.176 74.1371 115.809 74.2459 115.455L74.0796 112.082C74.0796 112.082 74.0474 110.961 74.0796 110.596C74.0742 110.279 74.0485 109.963 74.0027 109.65C73.9866 109.524 73.9705 109.394 73.9526 109.265C74.8201 109.045 75.3835 108.841 75.3835 108.841L75.2833 97.099C76.0202 95.6682 76.1562 92.5292 76.1526 90.3024C76.1526 88.8715 76.0882 87.8127 76.0882 87.8127L77.0952 86.169C77.0952 86.169 77.3277 84.2015 76.9592 83.7705C76.7965 83.5755 76.8698 83.3734 77.0039 83.2071C77.0736 83.1518 77.1471 83.1016 77.2239 83.0568C77.2239 83.0568 77.2132 83.0407 77.2007 83.0175C77.271 82.9587 77.3457 82.9055 77.4243 82.8583C77.4243 82.8583 77.0665 82.3038 77.3867 82.0695C77.6872 82.2734 77.9555 82.4272 78.1594 82.5524C78.1451 82.683 78.1308 82.7581 78.1308 82.7581L78.2166 82.5793C78.4133 82.6901 78.5332 82.7581 78.5332 82.7581C78.5332 82.7581 80.1107 79.6156 80.0767 79.1523C80.0428 78.6891 81.1499 76.7377 81.1499 76.7377C81.1499 76.7377 81.284 75.7129 81.8886 75.2836C82.4931 74.8543 82.3572 71.744 82.3572 71.744C82.3572 71.744 82.5253 70.1235 82.9277 69.4617C83.3302 68.7999 82.5611 67.9074 82.5611 67.9074ZM52.3769 66.5284L52.4073 67.2779C52.2284 66.9899 52.0996 66.7824 52.0996 66.7824L52.3769 66.5284Z" fill="url(#paint0_linear_1437_39470)"/>
<path d="M78.6187 81.4004L78.2323 83.0459C78.2323 83.0459 75.1381 81.4666 74.5801 79.4598C74.022 77.453 75.5137 76.691 75.5137 76.691L78.3969 77.9126L78.6187 81.4004Z" fill="white"/>
<path opacity="0.1" d="M78.6187 81.4004L78.2323 83.0459C78.2323 83.0459 75.1381 81.4666 74.5801 79.4598C74.022 77.453 75.5137 76.691 75.5137 76.691L78.3969 77.9126L78.6187 81.4004Z" fill="black"/>
<path d="M61.2535 137.403C61.2535 137.403 58.3917 138.455 56.4243 138.587C55.3797 138.657 54.8306 138.017 54.548 137.399C54.3937 137.056 54.2941 136.691 54.2529 136.317L54.5087 133.482L54.6446 131.973L58.8246 130.887L59.4166 132.697L59.472 132.835C59.7099 133.44 60.6632 135.899 60.6346 136.412C60.6334 136.544 60.6588 136.674 60.7092 136.795C60.7596 136.917 60.834 137.027 60.9279 137.119C61.0239 137.227 61.1333 137.322 61.2535 137.403Z" fill="white"/>
<path d="M80.8016 135.961C80.8087 136.047 80.8003 136.134 80.7765 136.217C80.7765 136.217 74.656 137.238 73.404 136.217C73.051 135.919 72.6395 135.698 72.196 135.568C71.7524 135.438 71.2866 135.402 70.8284 135.462C70.8284 135.462 68.4603 135.527 68.065 134.747C67.9005 134.42 67.9434 133.785 68.0454 133.159C68.1494 132.572 68.2879 131.992 68.4603 131.422L68.5551 131.347L69.1185 130.894L75.7148 130.699H75.7649C75.7327 132.048 78.0042 133.595 78.0042 133.595C80.417 134.489 80.773 135.5 80.8016 135.961Z" fill="white"/>
<path opacity="0.1" d="M80.8016 135.961C80.8079 136.047 80.7988 136.134 80.7748 136.217C80.7748 136.217 74.656 137.238 73.404 136.217C73.0512 135.919 72.6401 135.698 72.1968 135.568C71.7536 135.438 71.2881 135.402 70.8302 135.462C70.8302 135.462 68.4603 135.527 68.0669 134.747C67.9023 134.418 67.9434 133.784 68.0454 133.158C68.9576 133.25 70.3974 133.477 70.9626 134.019C71.8175 134.843 73.2663 135.666 74.1552 135.73C74.851 135.775 79.013 135.908 80.8016 135.961Z" fill="black"/>
<path opacity="0.1" d="M61.2534 137.403C61.2534 137.403 58.3917 138.455 56.4242 138.587C55.3797 138.657 54.8306 138.016 54.5498 137.398C55.2778 137.643 56.2883 137.9 56.8195 137.664C57.4491 137.385 59.6813 137.204 60.9333 137.127C61.0286 137.232 61.1361 137.324 61.2534 137.403Z" fill="black"/>
<path d="M65.5003 52.6506C63.1394 51.733 60.1024 48.7014 60.8607 47.2848C61.0292 46.9274 61.1293 46.5416 61.1559 46.1473C61.2046 45.6121 61.2118 45.0739 61.1773 44.5376C61.1242 43.6592 61.0184 42.7848 60.8607 41.9191C60.8607 41.9191 68.2315 42.0854 67.8023 43.1711C67.6771 43.4894 67.6574 44.0421 67.6914 44.661C67.7254 45.2798 67.8148 45.9792 67.9078 46.5712C68.0366 47.3832 68.1653 48.0021 68.1653 48.0021C68.1653 48.0021 67.7146 48.6334 67.4499 48.6674C67.1852 48.7014 68.8879 53.9581 65.5003 52.6506Z" fill="#CF6F80"/>
<path opacity="0.1" d="M59.4672 132.835L59.4118 132.896C57.2083 130.231 54.5433 133.552 54.5433 133.552L54.5039 133.482L54.6398 131.973L58.8198 130.887L59.4118 132.697L59.4672 132.835Z" fill="black"/>
<path opacity="0.1" d="M75.7659 130.887C75.7659 130.887 74.1562 130.853 73.2977 131.611C72.4392 132.37 68.2896 131.776 68.4685 131.611C68.5215 131.53 68.5535 131.437 68.5615 131.34L69.1249 130.887L75.7212 130.692C75.7463 130.812 75.7659 130.887 75.7659 130.887Z" fill="black"/>
<path d="M62.2093 109.959C62.0895 110.255 61.9984 110.563 61.9375 110.877C61.7883 111.736 61.7469 112.611 61.8141 113.481C61.8802 114.733 61.8141 123.123 61.8141 123.123C61.8141 123.123 60.3993 125.361 59.6105 126.149C58.8218 126.938 61.2203 128.355 61.2203 128.355C61.578 130.394 59.4102 132.697 59.4102 132.697C57.2067 130.032 54.5417 133.356 54.5417 133.356C54.5417 133.356 53.0929 130.851 52.7316 129.957C52.3703 129.063 54.1464 128.444 54.7706 128.081C55.3948 127.718 54.7402 125.577 54.7402 125.577C54.7402 125.577 54.2126 123.701 53.5866 121.989C52.9605 120.277 54.277 111.757 54.277 111.757C54.277 111.757 54.3449 110.243 54.5077 109.716C54.5898 109.335 54.6061 108.943 54.556 108.557C54.5452 108.426 54.5327 108.317 54.5238 108.244C54.5148 108.17 54.5077 108.136 54.5077 108.136L54.5327 108.093L55.427 106.427C55.427 106.427 62.6386 108.909 62.2093 109.959Z" fill="#00B3A6"/>
<path d="M75.7666 130.691C75.7666 130.691 74.1568 130.657 73.2983 131.406C72.4398 132.155 68.2902 131.571 68.4691 131.406C68.648 131.241 68.6337 130.023 68.6337 130.023C66.1994 126.7 68.2759 125.352 68.2759 125.352C68.2759 125.352 67.1885 120.12 66.9917 118.179C66.854 116.824 66.6841 113.18 66.5929 111.1C66.5535 110.206 66.5303 109.591 66.5303 109.591L68.5192 109.19L68.775 109.138L73.572 108.176C73.572 108.176 73.7043 109.07 73.7937 109.802C73.8383 110.114 73.8634 110.429 73.8689 110.744C73.8367 111.102 73.8689 112.222 73.8689 112.222L74.0316 115.579C73.9253 115.931 73.8705 116.297 73.8689 116.664C73.9011 117.092 74.5253 123.212 74.5253 123.212C74.5253 123.212 75.6109 126.865 75.2407 127.128C74.8705 127.391 75.7666 130.691 75.7666 130.691Z" fill="#00B3A6"/>
<path opacity="0.1" d="M67.8019 43.1711C67.6767 43.4894 67.657 44.0421 67.691 44.661C66.7037 45.2555 65.5687 45.5595 64.4164 45.538C63.2642 45.5164 62.1413 45.1703 61.1769 44.5393C61.1238 43.6604 61.0181 42.7854 60.8604 41.9191C60.8604 41.9191 68.2311 42.0818 67.8019 43.1711Z" fill="black"/>
<path d="M70.6515 39.2183C70.6529 39.8629 70.5515 40.5035 70.351 41.116C69.9029 42.4885 68.984 43.6584 67.7568 44.419C66.5295 45.1795 65.0729 45.4817 63.6444 45.2721C62.2159 45.0626 60.9075 44.3548 59.9503 43.2738C58.9932 42.1929 58.449 40.8084 58.414 39.365C58.414 39.3149 58.414 39.2684 58.414 39.2183C58.4001 38.4059 58.5481 37.5988 58.8494 36.8442C59.1507 36.0895 59.5993 35.4024 60.1689 34.823C60.7386 34.2435 61.4179 33.7833 62.1673 33.4691C62.9166 33.155 63.7211 32.9932 64.5336 32.9932C65.3462 32.9932 66.1506 33.155 66.9 33.4691C67.6494 33.7833 68.3287 34.2435 68.8984 34.823C69.468 35.4024 69.9165 36.0895 70.2179 36.8442C70.5192 37.5988 70.6672 38.4059 70.6533 39.2183H70.6515Z" fill="#CF6F80"/>
<path opacity="0.1" d="M65.5003 52.6507C63.1394 51.7331 60.1024 48.7014 60.8607 47.2849C61.0292 46.9274 61.1293 46.5416 61.1559 46.1473L64.3878 48.8034L66.3875 50.4435L67.9078 46.573C68.0366 47.385 68.1653 48.0039 68.1653 48.0039C68.1653 48.0039 67.7146 48.6353 67.4499 48.6692C67.1852 48.7032 68.8879 53.9581 65.5003 52.6507Z" fill="black"/>
<path d="M73.858 64.3893L71.159 109.73L67.6391 109.961L58.5244 83.6703L60.0197 52.4576L60.3345 45.863L64.3874 49.1916L66.3888 50.8317L67.9539 46.8485L70.8639 49.3848L73.858 64.3893Z" fill="#00B3A6"/>
<path opacity="0.1" d="M62.2087 109.959C62.0888 110.255 61.9977 110.562 61.9368 110.876C59.3755 110.481 56.888 109.704 54.5571 108.571L54.5088 108.546L54.5249 108.258L54.5338 108.108L55.4281 106.441C55.4281 106.441 62.6379 108.909 62.2087 109.959Z" fill="black"/>
<path opacity="0.1" d="M68.5603 110.883C67.9056 110.995 67.2452 111.07 66.5821 111.109C66.5428 110.215 66.5195 109.599 66.5195 109.599L68.5084 109.199L68.5603 110.883Z" fill="black"/>
<path opacity="0.1" d="M73.7825 109.81C72.5108 110.141 70.5469 110.513 68.7887 110.281L68.7637 109.147L73.5607 108.185C73.5607 108.185 73.693 109.07 73.7825 109.81Z" fill="black"/>
<path opacity="0.1" d="M68.7573 110.488C61.424 111.74 54.7079 108.151 54.7079 108.151L54.7723 106.934C54.7723 106.934 54.9386 93.1461 54.4772 92.089C54.0157 91.032 53.6562 85.6716 53.9173 84.8488C54.1785 84.0261 52.964 71.6884 52.964 71.6884L52.7673 66.6804L45.5664 63.7632L48.7859 57.0524C49.2207 56.1115 49.5947 55.1437 49.9055 54.1549C50.4654 52.4128 53.0642 50.7011 53.0642 50.7011C53.0642 50.7011 55.7292 48.9912 56.7827 49.0556C57.8361 49.12 59.2169 47.5425 59.2169 47.5425C60.2364 44.9437 61.1593 46.1206 61.1593 46.1206C61.1593 46.244 61.1593 46.1206 61.1093 46.5051C60.7515 49.3579 66.8936 58.3724 66.9812 58.5316L67.5661 72.7794L68.1581 90.8102L68.7573 110.488Z" fill="black"/>
<path d="M68.5605 110.488C61.2272 111.74 54.5093 108.151 54.5093 108.151L54.5755 106.934C54.5755 106.934 54.7418 93.1461 54.2786 92.0891C53.8153 91.032 53.4576 85.6716 53.7205 84.8489C53.9835 84.0261 52.7672 71.6884 52.7672 71.6884L52.5687 66.6804L45.3643 63.7525L48.5837 57.0417C49.0176 56.1004 49.3916 55.1326 49.7034 54.1442C50.2614 52.4021 52.862 50.6904 52.862 50.6904C52.862 50.6904 55.527 48.9805 56.5787 49.0449C57.6304 49.1093 59.013 47.5318 59.013 47.5318C60.0343 44.9329 61.1593 46.1098 61.1593 46.1098C61.1593 46.2332 61.052 46.2887 61.1092 46.4944C61.8962 49.2613 66.6968 58.3617 66.7844 58.5208L67.3764 72.7687L67.9684 90.7995L68.5605 110.488Z" fill="white"/>
<path opacity="0.1" d="M66.5836 58.9269C65.7949 58.5978 61.6167 53.8276 61.6167 53.8276V52.7419C61.4647 52.3842 60.5614 52.6024 59.8281 52.8528L60.1429 46.2583L60.5006 46.5552C61.284 49.3204 66.4924 58.7677 66.5836 58.9269Z" fill="black"/>
<path d="M66.7827 58.5316C65.9921 58.2025 61.814 53.4323 61.814 53.4323V52.3467C61.6619 51.989 60.7587 52.2072 60.0254 52.4576L60.342 45.863L60.6997 46.1599C61.4849 48.9251 66.695 58.3742 66.7827 58.5316Z" fill="white"/>
<path opacity="0.1" d="M54.7071 82.3216C54.8055 82.3216 59.8064 81.7958 59.8064 81.7958C59.8064 81.7958 62.8345 87.75 62.636 89.1987C62.4374 90.6475 62.0779 91.9299 60.8599 91.7028C59.6418 91.4756 54.3047 91.8816 54.3047 91.8816L54.7071 82.3216Z" fill="black"/>
<path d="M54.5089 81.9262C54.6072 81.9262 59.6081 81.4004 59.6081 81.4004C59.6081 81.4004 62.6344 87.3564 62.4377 88.8034C62.2409 90.2503 61.8779 91.5345 60.6616 91.3074C59.4454 91.0802 54.1064 91.4862 54.1064 91.4862L54.5089 81.9262Z" fill="white"/>
<path d="M58.2777 79.1306C58.2777 79.1306 62.8672 81.5971 62.9656 82.3501C63.064 83.1031 60.6297 82.021 60.1039 81.8904C59.7578 81.807 59.4054 81.752 59.0504 81.7259L55.543 81.8207L58.2777 79.1306Z" fill="#CF6F80"/>
<path opacity="0.1" d="M65.3032 59.2345C65.5699 59.2345 65.7862 59.0183 65.7862 58.7516C65.7862 58.4849 65.5699 58.2687 65.3032 58.2687C65.0365 58.2687 64.8203 58.4849 64.8203 58.7516C64.8203 59.0183 65.0365 59.2345 65.3032 59.2345Z" fill="black"/>
<path d="M65.3032 59.0379C65.5699 59.0379 65.7862 58.8217 65.7862 58.5549C65.7862 58.2882 65.5699 58.072 65.3032 58.072C65.0365 58.072 64.8203 58.2882 64.8203 58.5549C64.8203 58.8217 65.0365 59.0379 65.3032 59.0379Z" fill="#3F3D56"/>
<path opacity="0.1" d="M66.1919 80.1397C66.4586 80.1397 66.6748 79.9235 66.6748 79.6567C66.6748 79.39 66.4586 79.1738 66.1919 79.1738C65.9252 79.1738 65.709 79.39 65.709 79.6567C65.709 79.9235 65.9252 80.1397 66.1919 80.1397Z" fill="black"/>
<path d="M66.1919 79.9409C66.4586 79.9409 66.6748 79.7247 66.6748 79.458C66.6748 79.1913 66.4586 78.9751 66.1919 78.9751C65.9252 78.9751 65.709 79.1913 65.709 79.458C65.709 79.7247 65.9252 79.9409 66.1919 79.9409Z" fill="#3F3D56"/>
<path opacity="0.1" d="M65.7847 69.687C66.0514 69.687 66.2676 69.4708 66.2676 69.2041C66.2676 68.9374 66.0514 68.7212 65.7847 68.7212C65.518 68.7212 65.3018 68.9374 65.3018 69.2041C65.3018 69.4708 65.518 69.687 65.7847 69.687Z" fill="black"/>
<path d="M65.7847 69.4903C66.0514 69.4903 66.2676 69.274 66.2676 69.0073C66.2676 68.7406 66.0514 68.5244 65.7847 68.5244C65.518 68.5244 65.3018 68.7406 65.3018 69.0073C65.3018 69.274 65.518 69.4903 65.7847 69.4903Z" fill="#3F3D56"/>
<path d="M76.9162 81.6259C76.9162 81.6259 77.2453 82.1195 76.9162 82.3503C76.5871 82.581 76.9484 83.139 76.9484 83.139C76.9484 83.139 76.1274 83.6202 76.4887 84.053C76.85 84.4858 76.6211 86.4408 76.6211 86.4408L75.6338 88.0755C75.6338 88.0755 75.6928 89.129 75.6964 90.5527C75.6964 92.7742 75.5658 95.897 74.8432 97.3208L74.9434 109.002C74.9434 109.002 71.486 110.265 68.5921 109.88L68.1628 91.1358C68.1628 91.1358 68.7888 80.5062 69.0196 78.4672C69.1546 77.4087 69.2096 76.3414 69.1841 75.2746C69.1841 75.2746 69.0857 72.0837 68.7549 70.6028C68.7549 70.6028 68.3971 64.1871 68.3614 62.411C68.3453 61.5615 68.39 59.0825 68.4401 56.7251C68.4955 54.1478 68.5581 51.7171 68.5581 51.7171L67.9053 46.5516C67.9053 46.5516 68.5581 46.4854 68.7549 46.7484C68.843 46.8307 68.9388 46.9044 69.041 46.9684C70.1678 47.7303 74.1492 50.0733 74.1492 50.0733C74.1492 50.0733 76.3528 50.9498 76.8804 52.2053C77.408 53.4609 77.7747 54.3517 78.0305 54.7094C78.2862 55.0671 78.4258 56.7484 78.4258 56.7484C78.4258 56.7484 79.1841 59.8426 79.7761 60.3667C80.3682 60.8907 80.801 64.2247 80.801 64.2247L75.5694 68.3384C75.5694 68.3384 75.1097 75.1816 75.0113 75.4463C74.913 75.711 76.9162 81.6259 76.9162 81.6259Z" fill="white"/>
<path d="M77.1145 81.6258C77.1145 81.6258 77.4419 82.1195 77.1145 82.3502C76.7872 82.5809 77.1449 83.139 77.1449 83.139C77.1449 83.139 76.3294 83.6255 76.6871 84.0583C77.0448 84.4912 76.8194 86.4461 76.8194 86.4461L75.8321 88.0809C75.8321 88.0809 75.8911 89.1343 75.8965 90.5581C75.8965 92.7795 75.7659 95.9024 75.0434 97.3261L75.1417 109.007C75.1417 109.007 71.679 110.27 68.7887 109.886L68.3612 91.1411C68.3612 91.1411 68.9872 80.5115 69.2179 78.4726C69.3531 77.414 69.4075 76.3467 69.3807 75.2799C69.3807 75.2799 69.2823 72.0891 68.9532 70.6081C68.9532 70.6081 68.5955 64.1924 68.5579 62.4164C68.5418 61.5668 68.5883 59.0878 68.6366 56.7304C68.6921 54.1531 68.7547 51.7224 68.7547 51.7224L67.8926 46.4872C67.8926 46.4872 68.7547 46.4872 68.9532 46.7537C69.0405 46.837 69.1364 46.9107 69.2394 46.9737C70.3662 47.7356 74.3494 50.0787 74.3494 50.0787C74.3494 50.0787 76.5511 50.9551 77.0788 52.2107C77.6064 53.4663 77.9731 54.357 78.2306 54.7147C78.4882 55.0724 78.6241 56.7537 78.6241 56.7537C78.6241 56.7537 79.3825 59.848 79.9745 60.372C80.5665 60.8961 80.994 64.2229 80.994 64.2229L75.7624 68.3366C75.7624 68.3366 75.3027 75.1798 75.2025 75.4445C75.1024 75.7092 77.1145 81.6258 77.1145 81.6258Z" fill="white"/>
<path opacity="0.1" d="M70.8498 53.2409L71.322 54.6181L68.8359 57.1222C68.8913 54.5466 68.9539 52.1141 68.9539 52.1141L68.0918 46.8789C68.0918 46.8789 68.9539 46.8789 69.1524 47.1454C69.2395 47.2285 69.3355 47.3017 69.4386 47.3636L71.5527 53.4627L70.8498 53.2409Z" fill="black"/>
<path d="M70.6506 52.8457L71.1246 54.2229L68.6384 56.7269C68.6939 54.1495 68.7565 51.7188 68.7565 51.7188L67.8926 46.4836C67.8926 46.4836 68.7565 46.4836 68.9532 46.7501C69.0409 46.8329 69.1368 46.9066 69.2394 46.9701L71.3553 53.0674L70.6506 52.8457Z" fill="white"/>
<path opacity="0.1" d="M70.6515 39.2183C70.6529 39.8628 70.5515 40.5035 70.351 41.116C70.3172 41.1213 70.2827 41.1197 70.2496 41.1114C70.2164 41.1031 70.1852 41.0883 70.1579 41.0677C70.1114 39.458 69.319 37.9466 68.3442 36.6607C68.0706 36.2724 67.7388 35.9285 67.3605 35.6412C66.9781 35.3539 66.5024 35.2194 66.0262 35.2638C65.4896 35.3371 65.0157 35.702 64.4737 35.7485C63.7583 35.8075 63.118 35.3121 62.4079 35.287C62.1192 35.2898 61.8345 35.354 61.5726 35.4756C61.3108 35.5971 61.0778 35.773 60.8894 35.9917C60.5164 36.433 60.2392 36.9471 60.0756 37.5013C59.7944 38.3416 59.6412 39.2195 59.6213 40.1055C59.6123 40.6063 59.564 41.2341 59.099 41.4165C59.134 41.0482 59.0922 40.6766 58.9761 40.3253C58.86 39.974 58.6723 39.6507 58.4247 39.3757L58.414 39.365C58.414 39.3149 58.414 39.2684 58.414 39.2183C58.4001 38.4059 58.5481 37.5988 58.8494 36.8442C59.1507 36.0895 59.5993 35.4024 60.1689 34.823C60.7386 34.2435 61.4179 33.7833 62.1673 33.4691C62.9166 33.155 63.7211 32.9932 64.5336 32.9932C65.3462 32.9932 66.1506 33.155 66.9 33.4691C67.6494 33.7833 68.3287 34.2435 68.8984 34.823C69.468 35.4024 69.9165 36.0895 70.2179 36.8442C70.5192 37.5988 70.6672 38.4059 70.6533 39.2183H70.6515Z" fill="black"/>
<path d="M67.0665 29.501C66.1371 29.0638 65.0799 28.9811 64.0938 29.2685C63.5984 29.4152 63.1316 29.6531 62.629 29.7729C61.5558 30.0322 60.3038 29.7514 59.3827 30.3792C58.8712 30.7369 58.5635 31.3021 58.2774 31.8512L57.5619 33.2141C57.172 33.96 56.7785 34.7183 56.6158 35.5393C56.453 36.3603 56.5514 37.2796 57.0718 37.9396C57.451 38.4207 58.0109 38.723 58.4222 39.1755C58.6687 39.4507 58.8556 39.7739 58.9713 40.1248C59.0871 40.4756 59.1291 40.8466 59.0947 41.2145C59.5616 41.0356 59.6063 40.406 59.617 39.9052C59.6369 39.0193 59.7901 38.1414 60.0713 37.3011C60.2346 36.7467 60.5117 36.2325 60.8851 35.7915C61.0737 35.573 61.3067 35.3971 61.5685 35.2756C61.8303 35.1541 62.115 35.0898 62.4036 35.0868C63.1191 35.1118 63.7612 35.6055 64.4695 35.5464C65.006 35.5017 65.4818 35.1351 66.0219 35.0635C66.4982 35.0185 66.9741 35.1531 67.3562 35.4409C67.7344 35.7278 68.0656 36.0718 68.3382 36.4604C69.3147 37.7464 70.1071 39.2542 70.1536 40.8675C70.3557 41.016 70.6472 40.8228 70.7474 40.5938C70.8476 40.3649 70.8511 40.0966 70.9781 39.8784C71.1248 39.6262 71.4056 39.4921 71.6256 39.3025C72.1836 38.8214 72.3232 38.0111 72.3017 37.276C72.2802 36.5409 72.1371 35.7951 72.2766 35.0725C72.3607 34.6289 72.5503 34.214 72.654 33.7757C72.7578 33.3375 72.7703 32.8457 72.5253 32.4683C72.1675 31.9138 71.4145 31.8047 70.7581 31.7529C70.0123 31.6885 69.3452 31.7707 68.8694 31.1429C68.6461 30.8153 68.3947 30.5077 68.1182 30.2236C68.0234 30.1306 67.0665 29.5404 67.0665 29.501Z" fill="#512E4E"/>
<path opacity="0.1" d="M47.6261 67.2187L45.7571 63.7632L45.165 69.095C45.165 69.095 45.4941 71.4631 45.428 71.8261C45.3618 72.1892 46.7766 75.4445 46.7766 75.4445C46.7766 75.4445 51.4501 83.7685 53.3586 84.1978L59.8064 79.5904L58.0965 77.4191C58.0965 77.4191 57.5045 77.1883 57.3561 77.4191C57.3561 77.4191 54.1813 71.9567 53.8522 71.5614C53.5231 71.1662 53.5875 70.3774 53.5875 70.3774C53.5875 70.3774 53.0939 69.8515 53.2584 69.3579C53.423 68.8642 52.3051 67.1526 52.3051 67.1526L53.3246 66.1992L47.6261 67.2187Z" fill="black"/>
<path d="M45.8562 63.3698L45.3625 63.7632L44.7705 69.095C44.7705 69.095 45.0996 71.4631 45.0334 71.8262C44.9673 72.1893 46.3838 75.4445 46.3838 75.4445C46.3838 75.4445 51.0556 83.7686 52.964 84.1979L59.4137 79.5905L57.702 77.4191C57.702 77.4191 57.11 77.1884 56.9615 77.4191C56.9615 77.4191 53.7868 71.9568 53.4577 71.5615C53.1286 71.1662 53.1948 70.3774 53.1948 70.3774C53.1948 70.3774 52.7011 69.8516 52.8657 69.358C53.0302 68.8643 51.9106 67.1526 51.9106 67.1526L52.93 66.1993L45.8562 63.3698Z" fill="white"/>
<path opacity="0.1" d="M76.4893 84.2568C76.847 84.6914 76.6216 86.6427 76.6216 86.6427L75.6343 88.2775C75.6343 88.2775 75.6934 89.3328 75.6969 90.7547L74.0371 91.2734C73.8871 91.3203 73.7281 91.3306 73.5733 91.3034C73.4185 91.2763 73.2724 91.2126 73.1473 91.1175C73.0221 91.0225 72.9215 90.8989 72.8539 90.7571C72.7862 90.6152 72.7534 90.4593 72.7583 90.3022L73.0445 81.0713L76.9168 82.5522C76.5877 82.7812 76.9489 83.3428 76.9489 83.3428C76.9489 83.3428 76.128 83.8221 76.4893 84.2568Z" fill="black"/>
<path d="M76.6873 84.0584C77.045 84.4931 76.8197 86.4462 76.8197 86.4462L75.8324 88.081C75.8324 88.081 75.8914 89.1345 75.8968 90.5582L74.2066 91.0858C74.0596 91.1315 73.904 91.1414 73.7525 91.1147C73.6009 91.088 73.458 91.0255 73.3355 90.9324C73.213 90.8394 73.1146 90.7184 73.0483 90.5795C72.982 90.4407 72.9499 90.288 72.9545 90.1343L73.2425 80.8748L77.1166 82.3557C76.7857 82.5847 77.147 83.1445 77.147 83.1445C77.147 83.1445 76.3296 83.6256 76.6873 84.0584Z" fill="white"/>
<path d="M77.9699 79.6585C77.9699 79.6585 77.707 81.338 77.0488 81.4363C76.3906 81.5347 76.0955 84.1532 75.439 84.0602C74.7826 83.9672 75.2173 81.6259 75.2405 81.1716C75.2638 80.7173 74.5251 78.8357 75.0778 78.4082C75.6304 77.9808 77.3797 78.4082 77.3797 78.4082L77.9699 79.6585Z" fill="#CF6F80"/>
<path opacity="0.1" d="M79.3709 66.7251L80.6121 64.2211C80.6121 64.2211 81.1058 66.1295 81.1058 67.149C81.1058 68.1685 81.7962 68.2686 81.7962 68.2686C81.7962 68.2686 82.5528 69.1629 82.1539 69.814C81.7551 70.465 81.5941 72.0855 81.5941 72.0855C81.5941 72.0855 81.7246 75.178 81.1326 75.6054C80.5406 76.0329 80.4172 77.0542 80.4172 77.0542C80.4172 77.0542 79.3297 78.9948 79.3637 79.4563C79.3977 79.9177 77.8506 83.0424 77.8506 83.0424C77.8506 83.0424 78.6071 79.1594 74.1983 77.4817C74.1983 77.4817 74.1643 76.1635 74.4934 75.8022C74.8225 75.4409 75.3358 75.2763 75.0139 73.4502C74.6919 71.624 74.9209 69.442 74.9209 69.0038C74.9209 68.5656 75.9082 65.8326 75.9082 65.8326L79.3709 66.7251Z" fill="black"/>
<path d="M79.9065 63.8634L80.9904 64.2211C80.9904 64.2211 81.4859 66.1295 81.4859 67.149C81.4859 68.1685 82.1763 68.2687 82.1763 68.2687C82.1763 68.2687 82.9328 69.163 82.534 69.814C82.1351 70.4651 81.9759 72.0855 81.9759 72.0855C81.9759 72.0855 82.1065 75.178 81.5145 75.6055C80.9225 76.0329 80.7901 77.0542 80.7901 77.0542C80.7901 77.0542 79.7044 78.9948 79.7384 79.4563C79.7724 79.9178 78.2235 83.0424 78.2235 83.0424C78.2235 83.0424 78.9818 79.1594 74.5712 77.4817C74.5712 77.4817 74.539 76.1635 74.8681 75.8022C75.1972 75.4409 75.7105 75.2764 75.3886 73.4502C75.0666 71.6241 75.2956 69.442 75.2956 69.0038C75.2956 68.5656 76.2829 65.8326 76.2829 65.8326L79.9065 63.8634Z" fill="white"/>
<path opacity="0.1" d="M55.9668 128.766C55.9668 128.766 57.6946 127.68 58.8285 128.469C59.9625 129.258 55.9668 128.766 55.9668 128.766Z" fill="black"/>
<path opacity="0.1" d="M69.3916 125.409C69.3916 125.409 70.9208 125.212 72.2051 126.595C73.4893 127.977 69.3916 125.409 69.3916 125.409Z" fill="black"/>
<g opacity="0.1">
<path d="M71.6288 38.9107C71.4089 39.1003 71.1263 39.2362 70.9796 39.4884C70.8544 39.7048 70.8508 39.9713 70.7506 40.2039C70.6505 40.4364 70.3589 40.626 70.1568 40.4793C70.1103 38.8696 69.3162 37.3582 68.3414 36.0704C68.0689 35.6818 67.7376 35.3379 67.3595 35.0509C66.9767 34.7631 66.5002 34.6286 66.0234 34.6735C65.4868 34.7469 65.0146 35.1118 64.4727 35.1565C63.7573 35.2173 63.1152 34.7218 62.4051 34.6968C62.1165 34.6997 61.8319 34.7642 61.5703 34.886C61.3087 35.0079 61.0762 35.1842 60.8884 35.4033C60.515 35.8437 60.2378 36.3573 60.0746 36.9111C59.7935 37.7515 59.6403 38.6293 59.6203 39.5153C59.6095 40.0143 59.563 40.6367 59.1016 40.8227C59.1123 40.9548 59.1123 41.0876 59.1016 41.2198C59.5666 41.0409 59.6131 40.4113 59.6238 39.9105C59.6438 39.0246 59.7969 38.1467 60.0781 37.3063C60.2414 36.752 60.5186 36.2378 60.8919 35.7968C61.0802 35.5783 61.3128 35.4025 61.5744 35.281C61.8359 35.1595 62.1203 35.0951 62.4087 35.0921C63.1241 35.1171 63.768 35.6108 64.4763 35.5517C65.0129 35.507 65.4886 35.1404 66.027 35.0688C66.5038 35.0238 66.9802 35.1584 67.3631 35.4462C67.7412 35.7331 68.0725 36.0771 68.345 36.4657C69.3198 37.7517 70.1139 39.2595 70.1604 40.8728C70.3625 41.0212 70.6541 40.8281 70.7542 40.5991C70.8544 40.3702 70.858 40.1019 70.9832 39.8837C71.1298 39.6315 71.4124 39.4974 71.6324 39.3078C72.1905 38.8266 72.33 38.0164 72.3085 37.2813C72.3085 37.2581 72.3085 37.2348 72.3085 37.2133C72.2745 37.8501 72.1046 38.4993 71.6288 38.9107Z" fill="black"/>
<path d="M58.4257 38.7838C58.0143 38.3313 57.4527 38.029 57.0753 37.5497C56.7575 37.1254 56.576 36.6146 56.5548 36.0848C56.4985 36.7468 56.6834 37.4068 57.0753 37.9432C57.4527 38.4243 58.0143 38.7266 58.4257 39.1791C58.8207 39.6217 59.0578 40.1828 59.1 40.7745C59.1274 40.4144 59.0818 40.0525 58.9659 39.7104C58.85 39.3683 58.6663 39.0532 58.4257 38.7838Z" fill="black"/>
<path d="M72.6579 33.384C72.5524 33.8223 72.3646 34.239 72.2787 34.6808C72.2279 34.976 72.2093 35.2758 72.2233 35.5751C72.2292 35.4046 72.2478 35.2348 72.2787 35.0671C72.3646 34.6235 72.5524 34.2086 72.6579 33.7704C72.7194 33.5287 72.7393 33.2783 72.7169 33.0299C72.7058 33.1492 72.6861 33.2676 72.6579 33.384Z" fill="black"/>
</g>
<path opacity="0.1" d="M23.7395 136.038C33.3648 136.038 41.1675 134.785 41.1675 133.239C41.1675 131.693 33.3648 130.44 23.7395 130.44C14.1143 130.44 6.31152 131.693 6.31152 133.239C6.31152 134.785 14.1143 136.038 23.7395 136.038Z" fill="#00B3A6"/>
<path d="M24.3011 79.6172H23.1797V104.867H24.3011V79.6172Z" fill="#535461"/>
<path d="M31.3483 104.79L31.2786 105.927L31.1784 107.537L31.1373 108.206L31.0389 109.816L30.996 110.485L30.8958 112.094L29.7654 130.351C29.7163 131.136 29.3697 131.873 28.7962 132.412C28.2227 132.951 27.4653 133.251 26.6783 133.252H20.801C20.0142 133.251 19.2571 132.951 18.6838 132.412C18.1106 131.873 17.7644 131.136 17.7157 130.351L16.5907 112.082L16.4905 110.472L16.4494 109.803L16.3492 108.194L16.3081 107.525L16.2079 105.915L16.1364 104.777C16.1239 104.558 16.1564 104.339 16.2317 104.133C16.307 103.927 16.4236 103.739 16.5743 103.58C16.7251 103.42 16.9068 103.294 17.1083 103.207C17.3098 103.121 17.5268 103.076 17.7461 103.076H29.7672C29.9857 103.078 30.2014 103.125 30.4012 103.213C30.6009 103.302 30.7804 103.43 30.9286 103.591C31.0767 103.752 31.1904 103.941 31.2626 104.147C31.3348 104.353 31.364 104.572 31.3483 104.79Z" fill="#3F3D56"/>
<path d="M31.279 105.927L31.1788 107.532H16.3013L16.2012 105.927H31.279Z" fill="#9D9CB5"/>
<path d="M31.138 108.201L31.0396 109.807H16.4429L16.3428 108.201H31.138Z" fill="#9D9CB5"/>
<path d="M30.996 110.478L30.8976 112.082H16.5836L16.4834 110.478H30.996Z" fill="#9D9CB5"/>
<path d="M14.489 89.0807C21.0191 93.8061 23.7449 101.197 23.7449 101.197C23.7449 101.197 15.8751 100.926 9.34319 96.201C2.81126 91.4756 0.0908203 84.0869 0.0908203 84.0869C0.0908203 84.0869 7.95704 84.3552 14.489 89.0807Z" fill="#00B3A6"/>
<path d="M0.0859375 84.0869C0.0859375 84.0869 8.25622 88.621 10.8765 92.3752C13.4968 96.1295 23.7454 101.197 23.7454 101.197" stroke="#535461" strokeWidth="2" stroke-miterlimit="10"/>
<path d="M18.7048 79.5618C22.2587 82.132 23.745 86.1545 23.745 86.1545C23.745 86.1545 19.4614 86.0079 15.9056 83.4377C12.3499 80.8675 10.8672 76.8431 10.8672 76.8431C10.8672 76.8431 15.1491 76.9898 18.7048 79.5618Z" fill="#00B3A6"/>
<path d="M10.8672 76.8431C10.8672 76.8431 15.3136 79.3114 16.7391 81.354C18.1646 83.3965 23.745 86.1545 23.745 86.1545" stroke="#535461" strokeWidth="2" stroke-miterlimit="10"/>
<path d="M28.9053 85.9507C24.8219 90.4382 23.958 96.303 23.958 96.303C23.958 96.303 29.7155 94.89 33.7953 90.4007C37.875 85.9113 38.7425 80.0483 38.7425 80.0483C38.7425 80.0483 32.9886 81.4631 28.9053 85.9507Z" fill="#00B3A6"/>
<path d="M38.7461 80.0502C38.7461 80.0502 33.4268 84.6504 32.0746 87.8198C30.7225 90.9892 23.958 96.3031 23.958 96.3031" stroke="#535461" strokeWidth="2" stroke-miterlimit="10"/>
<path d="M178.8 84.3713C178.8 84.3713 175.847 69.6798 176.978 67.8519C176.978 67.8519 177.019 66.1527 176.951 63.9868C176.951 63.9045 176.951 63.8222 176.951 63.7381C177.15 63.8707 177.357 63.9902 177.572 64.0959C178.613 64.6309 179.809 64.7853 180.952 64.5323L180.058 63.536C179.843 63.2982 179.62 63.0406 179.573 62.7258C179.527 62.411 179.655 62.1302 179.766 61.8494C180.616 59.7031 180.661 57.0041 179.024 55.3658C177.641 53.9886 177.305 52.2107 175.804 50.9533C174.708 50.0322 174.105 48.6818 173.537 47.3761C173.055 46.2726 172.571 45.1601 172.295 43.9903C172.081 43.0764 171.995 42.1302 171.7 41.2377C171.405 40.3452 170.852 39.4777 169.988 39.0789C169.68 38.9376 169.339 38.8571 169.058 38.6693C168.689 38.4207 168.468 38.0165 168.201 37.6623C166.847 35.8737 162.313 36.9272 160.167 37.6534C159.583 37.8362 159.043 38.1356 158.579 38.5334L158.598 38.5012C158.614 38.4743 158.634 38.4475 158.652 38.4207C158.417 38.6106 158.214 38.8371 158.051 39.0914C157.738 39.5868 157.607 40.1645 157.346 40.7011C157.031 41.3361 155.28 43.1086 156.033 43.8222C156.086 43.8701 156.147 43.9088 156.212 43.9367C156.495 44.0543 156.806 44.0855 157.107 44.0261L157.074 44.103C156.817 44.7327 156.685 45.4064 156.686 46.0866C156.686 49.0252 159.11 51.4076 162.102 51.4076C162.665 51.4082 163.224 51.3219 163.76 51.1518C163.773 51.2198 163.783 51.2878 163.796 51.3558C163.796 51.3826 163.805 51.4094 163.808 51.4362L163.714 51.5686C163.709 51.5604 163.703 51.5527 163.697 51.5453L160.889 55.4695C160.46 55.7718 157.988 57.5604 157.849 58.9018C157.702 60.3702 157.555 62.0891 157.555 62.0891L157.536 62.4575C157.413 62.5601 157.27 62.6348 157.115 62.6765C156.961 62.7181 156.799 62.7258 156.642 62.699C155.765 62.5559 155.765 65.9184 155.765 65.9184C155.765 65.9184 155.182 66.455 154.781 65.99C154.381 65.5249 153.322 67.1007 153.322 67.1007L146.686 67.3869L146.534 67.3958L146.176 66.2887C146.138 66.1719 146.055 66.075 145.945 66.0191C145.836 65.9632 145.709 65.9527 145.592 65.99C145.564 65.9991 145.537 66.0105 145.511 66.024L145.486 66.0383L145.44 66.0705L145.416 66.0919C145.404 66.1036 145.392 66.1161 145.381 66.1295L145.359 66.1545L145.348 66.1653C145.307 66.2224 145.28 66.2884 145.269 66.3579C145.257 66.4275 145.263 66.4987 145.284 66.5659L145.592 67.5156C144.311 67.7732 143.002 68.4994 144.07 70.499L138.657 69.4992L140.408 70.9694L149.448 72.8349C149.328 73.0495 149.407 73.3608 149.78 73.799C151.39 75.6895 154.323 76.2028 155.504 76.3352C155.816 77.0326 156.205 77.6925 156.665 78.3026L156.563 80.186C156.563 80.186 153.574 94.5412 153.027 95.2692C153.303 94.9561 153.556 94.6231 153.783 94.2729C152.916 97.2223 151.703 101.259 151.385 101.864C150.873 102.83 150.399 106.738 150.982 106.988C151.161 107.065 151.673 107.027 152.403 106.972V107.296L152.37 119.564C152.37 119.564 152.517 127.088 152.115 127.805C151.712 128.523 151.605 130.027 151.605 130.027C151.605 130.027 149.995 132.994 148.72 134.187C148.711 134.196 148.702 134.205 148.691 134.212L148.652 133.933C148.652 133.933 147.119 135.868 143.728 135.759C143.728 135.759 141.687 137.086 144.713 137.158C147.74 137.229 151.605 137.051 151.605 137.051C151.605 137.051 154.304 132.937 156.565 133.473V136.591H157.257V133.423C157.578 133.212 157.853 132.938 158.064 132.617C158.276 132.296 158.421 131.936 158.489 131.558C158.548 131.168 158.505 130.77 158.363 130.402C158.221 130.034 157.986 129.709 157.681 129.46C157.543 129.336 157.433 129.185 157.357 129.016C157.281 128.847 157.241 128.665 157.239 128.48L157.214 128.501C157.214 128.439 157.198 128.374 157.191 128.308C156.992 126.698 156.743 123.377 157.622 120.919C158.825 117.55 159.19 112.856 158.314 110.063C158.031 109.17 157.799 108.261 157.618 107.342C157.597 107.226 157.577 107.115 157.559 107.011C158.158 107.092 158.751 107.212 159.335 107.369C161.365 107.929 165.806 108.033 169.598 108.002C169.607 108.106 169.618 108.215 169.63 108.324C169.698 109.082 169.839 109.832 170.052 110.563C170.528 111.994 170.746 118.303 170.746 118.303C170.746 118.303 171.36 123.49 171.025 125.6C170.847 126.773 170.668 127.952 170.566 129.136V129.159C170.566 129.159 169.561 132.021 168.825 133.575C168.808 133.615 168.788 133.654 168.77 133.692C168.574 133.71 168.381 133.752 168.196 133.819C168.196 133.819 167.21 135.786 166.228 136.112C165.246 136.437 165.572 137.509 167.795 137.115C170.018 136.722 173.376 136.4 173.376 136.4L173.52 134.393L174.204 133.538L174.025 135.539L174.753 135.396L174.656 132.962L175.774 131.563C175.774 131.563 177.124 130.361 175.118 127.997V128.049C175.096 128.015 175.077 127.979 175.053 127.945V127.934C174.721 127.419 174.456 126.459 174.941 124.754C175.817 121.674 176.327 118.879 176.327 118.879C176.327 118.879 178.283 111.39 175.931 107.847H176.035C175.794 107.348 175.624 106.818 175.529 106.273C175.517 106.208 175.506 106.142 175.497 106.074C177.237 105.974 178.945 105.659 180.339 104.979C180.333 104.972 179.494 87.2009 178.8 84.3713ZM156.706 71.9764V72.0122L156.348 72.0301L156.706 71.9764ZM155.479 72.1463C155.42 72.1593 155.365 72.1856 155.318 72.2232C155.164 72.4408 155.068 72.6936 155.037 72.9583L154.479 72.8331C154.479 72.8331 154.087 72.7491 153.524 72.6543L153.257 72.386C153.991 72.3252 154.753 72.2357 155.479 72.1463Z" fill="url(#paint1_linear_1437_39470)"/>
<path d="M173.942 132.987L173.729 135.521L174.443 135.378L174.336 132.629L173.942 132.987Z" fill="#1D2366"/>
<path d="M157.661 120.953C156.8 123.404 157.044 126.711 157.237 128.317C157.308 128.911 157.375 129.272 157.375 129.272C157.375 129.272 156.089 132.202 155.981 132.313C155.874 132.423 152.197 134.668 152.197 134.668L149.626 136.169C149.626 136.169 147.019 135.026 148.269 134.632C148.524 134.53 148.754 134.373 148.943 134.173C150.195 132.983 151.767 130.027 151.767 130.027C151.767 130.027 151.875 128.526 152.268 127.812C152.662 127.099 152.519 119.599 152.519 119.599L152.549 107.374V105.781L157.441 105.816C157.472 106.357 157.542 106.895 157.652 107.426C157.827 108.342 158.055 109.247 158.333 110.138C159.195 112.926 158.838 117.596 157.661 120.953Z" fill="#FFB0B1"/>
<path opacity="0.1" d="M157.375 129.272C157.375 129.272 156.089 132.202 155.981 132.313C155.874 132.424 152.197 134.668 152.197 134.668L149.626 136.169C149.626 136.169 147.019 135.026 148.269 134.633C148.524 134.53 148.754 134.373 148.943 134.173L149.054 134.955L149.911 134.919L157.244 128.321C157.308 128.911 157.375 129.272 157.375 129.272Z" fill="black"/>
<path d="M157.286 128.487L149.911 135.13L149.054 135.166L148.876 133.914C148.876 133.914 147.377 135.842 144.046 135.734C144.046 135.734 142.047 137.056 145.01 137.128C147.974 137.199 151.759 137.02 151.759 137.02C151.759 137.02 154.402 132.907 156.615 133.443V136.55H157.294V133.415C157.61 133.202 157.88 132.927 158.087 132.608C158.295 132.288 158.435 131.93 158.5 131.554C158.559 131.168 158.517 130.772 158.379 130.407C158.241 130.041 158.011 129.717 157.711 129.465C157.577 129.34 157.471 129.188 157.397 129.02C157.324 128.852 157.286 128.67 157.286 128.487Z" fill="#1D2366"/>
<path d="M174.621 124.774C174.146 126.473 174.405 127.43 174.731 127.943V127.954C175.148 128.588 175.438 129.297 175.585 130.041L175.614 130.202L172.259 135.094L170.438 135.809C170.438 135.809 167.51 134.81 168.045 134.523C168.179 134.454 168.388 134.082 168.628 133.568C169.343 132.021 170.331 129.167 170.331 129.167V129.143C170.434 127.965 170.599 126.79 170.781 125.62C171.109 123.515 170.508 118.347 170.508 118.347C170.508 118.347 170.293 112.064 169.828 110.635C169.618 109.908 169.478 109.163 169.411 108.41C169.315 107.516 169.293 106.779 169.293 106.779C169.293 106.779 171.221 104.096 174.756 106.993C175.038 107.225 175.287 107.494 175.494 107.795C177.936 111.268 175.97 118.92 175.97 118.92C175.97 118.92 175.478 121.703 174.621 124.774Z" fill="#FFB0B1"/>
<path opacity="0.1" d="M175.62 130.202L172.265 135.094L170.444 135.809C170.444 135.809 167.516 134.809 168.051 134.523C168.185 134.454 168.394 134.082 168.634 133.568C169.873 133.557 170.515 134.738 170.515 134.738L172.086 134.488C172.086 134.488 174.157 130.417 174.622 130.168C175.087 129.919 174.693 128.31 174.693 128.31V127.9C174.706 127.914 174.717 127.931 174.731 127.945V127.956C175.149 128.589 175.439 129.298 175.586 130.043L175.62 130.202Z" fill="black"/>
<path d="M170.622 134.843C170.622 134.843 169.728 133.201 168.015 133.808C168.015 133.808 167.051 135.775 166.086 136.094C165.122 136.412 165.444 137.485 167.623 137.093C169.801 136.702 173.085 136.378 173.085 136.378L173.228 134.377L175.443 131.556C175.443 131.556 176.763 130.359 174.799 128.004V128.413C174.799 128.413 175.192 130.023 174.727 130.272C174.262 130.52 172.198 134.593 172.198 134.593L170.622 134.843Z" fill="#1D2366"/>
<path opacity="0.1" d="M157.446 105.813C157.477 106.354 157.547 106.892 157.657 107.423C155.643 107.127 153.774 107.274 152.549 107.371V105.777L157.446 105.813Z" fill="black"/>
<path opacity="0.1" d="M175.693 108.24C175.693 108.24 172.831 108.379 169.419 108.408C169.322 107.514 169.301 106.777 169.301 106.777C169.301 106.777 171.229 104.094 174.763 106.992C175.046 107.223 175.294 107.492 175.502 107.793C175.557 107.945 175.621 108.095 175.693 108.24Z" fill="black"/>
<path d="M175.693 107.918C175.693 107.918 163.158 108.524 159.338 107.453C155.517 106.382 151.731 107.31 151.16 107.061C150.59 106.813 151.053 102.919 151.554 101.955C152.055 100.991 154.802 91.2413 154.802 91.2413L157.445 77.4585L160.23 76.6912L160.427 76.6357L165.28 75.2979L168.835 74.3159C168.835 74.3159 175.905 101.919 175.299 103.955C175.079 104.734 175.043 105.554 175.195 106.35C175.288 106.893 175.455 107.421 175.693 107.918Z" fill="#1D2366"/>
<path d="M148.231 68.0326C148.231 68.0326 145.727 70.7155 147.623 72.2107C149.518 73.706 150.765 72.3538 150.765 72.3538L148.231 68.0326Z" fill="#C7DAF5"/>
<path opacity="0.1" d="M148.231 68.0326C148.231 68.0326 145.727 70.7155 147.623 72.2107C149.518 73.706 150.765 72.3538 150.765 72.3538L148.231 68.0326Z" fill="black"/>
<path d="M168.462 50.3935C168.462 50.3935 168.169 50.6725 167.727 51.0839C167.098 51.6723 166.166 52.5327 165.339 53.2535C164.195 54.2497 163.25 54.9812 163.588 54.357C163.926 53.7328 163.862 52.6453 163.694 51.6276C163.681 51.5597 163.671 51.4917 163.658 51.4255C163.519 50.6781 163.334 49.9398 163.105 49.2148C163.105 49.2148 164.955 46.8253 165.978 45.8827C166.359 45.525 166.625 45.3783 166.642 45.6269C166.659 45.9614 166.91 46.7001 167.221 47.4835C167.23 47.5085 167.239 47.5318 167.25 47.5568C167.457 48.0934 167.691 48.6443 167.897 49.12C168.212 49.8498 168.462 50.3935 168.462 50.3935Z" fill="#FFB0B1"/>
<path opacity="0.1" d="M167.25 47.5569C167.076 48.4917 166.654 49.3626 166.029 50.0787C165.403 50.7948 164.597 51.3298 163.694 51.6277C163.552 50.8113 163.355 50.0052 163.105 49.2149C163.105 49.2149 166.588 44.7166 166.642 45.627C166.654 45.9722 166.926 46.7377 167.25 47.5569Z" fill="black"/>
<path opacity="0.1" d="M163.347 52.8296L163.798 52.1947C163.798 52.1947 164.096 54.0155 165.194 53.2124C166.293 52.4093 166.346 59.2561 166.346 59.2561L165.168 76.879L156.65 76.3693L156.892 67.8538L157.856 63.5612L160.24 57.3208L161.658 55.2586L163.347 52.8296Z" fill="black"/>
<path d="M166.346 59.3651L165.273 75.2997L165.16 76.9881L160.411 76.7037L160.232 76.693L156.655 76.4783L156.897 67.9611L157.861 63.6685L160.245 57.4281L161.663 55.3658L163.352 52.928L163.802 52.2948C163.802 52.2948 164.101 54.1156 165.199 53.3125L165.223 53.2964C166.296 52.6167 166.346 59.3651 166.346 59.3651Z" fill="#1D2366"/>
<path d="M157.981 62.1768C157.981 62.1768 157.553 63.0711 156.695 62.9262C155.836 62.7813 155.838 66.1456 155.838 66.1456C155.838 66.1456 155.267 66.6822 154.874 66.2172C154.48 65.7521 153.443 67.3243 153.443 67.3243L146.943 67.6105C146.943 67.6105 149.836 68.9323 149.269 72.9315C149.269 72.9315 159.088 72.3234 159.41 71.3951C159.732 70.4669 157.981 62.1768 157.981 62.1768Z" fill="white"/>
<path opacity="0.03" d="M157.981 62.1768C157.981 62.1768 157.553 63.0711 156.695 62.9262C155.836 62.7813 155.838 66.1456 155.838 66.1456C155.838 66.1456 155.267 66.6822 154.874 66.2172C154.48 65.7521 153.443 67.3243 153.443 67.3243L146.943 67.6105C146.943 67.6105 149.836 68.9323 149.269 72.9315C149.269 72.9315 159.088 72.3234 159.41 71.3951C159.732 70.4669 157.981 62.1768 157.981 62.1768Z" fill="black"/>
<path d="M139.092 69.712L140.805 71.1751L154.91 74.1388L153.161 72.3538L139.092 69.712Z" fill="white"/>
<path d="M163.373 53.3929C163.139 53.7506 162.468 55.5821 161.908 57.1811C161.441 58.5136 161.052 59.6852 161.052 59.6852C161.052 59.6852 160.141 65.6125 159.676 66.6839C159.211 67.7553 159.463 71.9334 159.463 71.9334L157.73 82.2518C157.73 82.2518 156.945 87.5728 155.732 90.7511C154.536 93.8794 153.203 95.346 153.162 95.3925C153.699 94.6663 156.623 80.3684 156.623 80.3684L157.589 62.3358C157.589 62.3358 157.73 60.6224 157.873 59.1575C158.016 57.6927 160.914 55.693 160.914 55.693L163.708 51.7206C163.988 52.0962 163.801 52.7508 163.373 53.3929Z" fill="white"/>
<path d="M156.089 76.5677C156.089 76.5677 151.975 76.3888 149.982 73.9957C147.99 71.6026 154.588 73.0406 154.588 73.0406L156.303 73.4341L156.089 76.5677Z" fill="#FFB0B1"/>
<path opacity="0.1" d="M175.299 103.956C175.079 104.736 175.044 105.556 175.196 106.351C170.708 106.67 165.907 105.457 165.907 105.457C165.013 106.28 162.658 107.492 162.658 107.492L161.373 91.5739C160.552 89.4276 160.23 78.1828 160.23 78.1828C160.23 78.1828 160.304 77.5943 160.409 76.7125C160.409 76.6911 160.409 76.6678 160.418 76.6464C160.738 74.1835 161.373 69.56 161.685 68.9358C162.114 68.0772 160.365 65.7932 160.365 65.7932L161.161 59.0055L161.257 58.1863C162.935 57.4369 164.221 55.0438 164.221 55.0438L165.208 53.3142C166.281 52.6256 166.337 59.374 166.337 59.374L165.264 75.3085L168.819 74.3266C168.819 74.3266 175.906 101.921 175.299 103.956Z" fill="black"/>
<path d="M179.905 105.056C175.013 107.485 166.122 105.235 166.122 105.235C165.228 106.058 162.872 107.271 162.872 107.271L161.586 91.3523C160.767 89.206 160.445 77.9611 160.445 77.9611C160.445 77.9611 161.479 69.5708 161.908 68.7141C162.034 68.4637 161.973 68.0917 161.824 67.691C161.094 65.7841 160.826 63.7316 161.041 61.7011L161.384 58.7839L161.479 57.9665C163.159 57.2153 164.445 54.8221 164.445 54.8221L165.339 53.2553L166.984 50.3686L167.764 49.0021L167.897 49.1219L168.907 50.0377C168.907 50.0377 169.336 50.3954 169.98 50.932C171.381 52.1124 173.801 54.1908 175.049 55.4625C176.147 56.5821 176.494 60.9373 176.594 64.2158C176.661 66.3746 176.621 68.0666 176.621 68.0666C175.514 69.8892 178.41 84.5216 178.41 84.5216C179.084 87.3494 179.905 105.056 179.905 105.056Z" fill="white"/>
<path opacity="0.03" d="M170.515 54.7862C170.515 54.7862 167.158 61.1768 167.548 63.6057C167.938 66.0347 169.047 68.7837 168.512 69.4258C168.328 69.6691 168.091 69.8665 167.818 70.0028C167.545 70.139 167.245 70.2102 166.94 70.211C166.403 70.2468 164.972 71.2466 164.972 71.3539C164.972 71.4612 163.651 71.4612 162.468 71.962C161.286 72.4628 159.54 72.7472 159.54 72.7472C159.54 72.7472 156.142 72.6399 155.825 72.9619C155.509 73.2838 155.183 75.2101 155.861 76.7465C156.539 78.2829 157.292 79.4294 157.861 79.6387C158.43 79.8479 162.039 78.6388 164.967 78.3527C167.895 78.0665 171.073 75.7467 171.073 75.7467C171.073 75.7467 174.573 74.4947 175.187 72.3895C175.8 70.2843 174.438 58.714 174.438 58.714C174.438 58.714 173.407 53.3214 170.515 54.7862Z" fill="black"/>
<path opacity="0.03" d="M170.086 54.2497C170.086 54.2497 166.729 60.6421 167.122 63.0692C167.516 65.4963 168.621 68.2472 168.085 68.8911C167.902 69.1346 167.665 69.3323 167.392 69.4686C167.119 69.6048 166.819 69.6759 166.514 69.6763C165.978 69.7121 164.547 70.7119 164.547 70.8192C164.547 70.9265 163.225 70.9265 162.043 71.4255C160.861 71.9245 159.115 72.2107 159.115 72.2107C159.115 72.2107 155.717 72.1034 155.402 72.4253C155.087 72.7473 154.758 74.6754 155.438 76.21C156.117 77.7446 156.868 78.8929 157.437 79.1021C158.006 79.3114 161.615 78.1023 164.543 77.8179C167.471 77.5335 170.65 75.2102 170.65 75.2102C170.65 75.2102 174.148 73.9582 174.754 71.8548C175.361 69.7514 174.005 58.1774 174.005 58.1774C174.005 58.1774 172.978 52.7866 170.086 54.2497Z" fill="black"/>
<path d="M170.41 54.4643C170.41 54.4643 167.053 60.8567 167.446 63.2838C167.84 65.7109 168.945 68.4618 168.41 69.1039C168.227 69.348 167.99 69.5461 167.717 69.6827C167.444 69.8193 167.143 69.8906 166.838 69.8908C166.302 69.9266 164.871 70.9264 164.871 71.032C164.871 71.1375 163.551 71.1393 162.367 71.6401C161.183 72.1409 159.439 72.4253 159.439 72.4253C159.439 72.4253 156.041 72.318 155.724 72.6399C155.407 72.9618 155.082 74.8899 155.76 76.4245C156.438 77.9592 157.191 79.1074 157.759 79.3167C158.328 79.526 161.937 78.3169 164.865 78.0307C167.793 77.7445 170.972 75.4247 170.972 75.4247C170.972 75.4247 174.472 74.1727 175.085 72.0675C175.699 69.9624 174.345 58.392 174.345 58.392C174.345 58.392 173.3 53.0084 170.41 54.4643Z" fill="white"/>
<path opacity="0.1" d="M170.336 71.6097C170.336 71.6097 167.653 71.0731 168.587 71.9674C169.521 72.8617 169.515 73.6451 170.658 73.6094C171.801 73.5736 170.336 71.6097 170.336 71.6097Z" fill="black"/>
<path opacity="0.1" d="M174.871 90.8514C174.871 90.8514 173.658 91.6724 175.978 93.5647C178.297 95.4571 174.871 90.8514 174.871 90.8514Z" fill="black"/>
<path opacity="0.1" d="M172.556 97.5997C172.556 97.707 172.127 101.535 173.733 102.492C175.339 103.448 172.556 97.5997 172.556 97.5997Z" fill="black"/>
<path d="M147.054 67.6014C145.759 67.6462 142.962 68.0414 144.413 70.7476C145.695 73.1425 147.85 71.5417 149.063 70.3272C148.767 69.195 148.048 68.2193 147.054 67.6014Z" fill="#FFB0B1"/>
<path opacity="0.1" d="M169.981 51.041C168.607 51.98 167.455 52.7724 167.23 52.9369C166.615 53.393 165.441 56.0705 164.685 57.437C164.082 58.537 162.123 58.8196 161.385 58.8893L161.48 58.0719C163.159 57.3207 164.445 54.9276 164.445 54.9276L167.765 49.1075L168.908 50.1467C168.908 50.1467 169.337 50.5044 169.981 51.041Z" fill="black"/>
<path d="M169.981 50.9337C168.607 51.8727 167.455 52.6651 167.23 52.8314C166.615 53.2857 165.441 55.9632 164.685 57.3297C164.082 58.4297 162.123 58.7123 161.385 58.782L161.48 57.9646C163.159 57.2134 164.445 54.8203 164.445 54.8203L167.765 49.0002L168.908 50.0358C168.908 50.0358 169.337 50.39 169.981 50.9337Z" fill="#DCE7FF"/>
<path d="M167.336 46.3763C167.337 47.45 167.012 48.4985 166.403 49.3829C165.684 50.4286 164.614 51.1819 163.387 51.5061C162.16 51.8304 160.858 51.704 159.716 51.1501C158.574 50.5962 157.669 49.6513 157.164 48.4869C156.659 47.3226 156.589 46.0159 156.965 44.804C157.342 43.5921 158.14 42.5552 159.215 41.8815C160.291 41.2079 161.572 40.942 162.827 41.1322C164.081 41.3224 165.226 41.9561 166.054 42.9183C166.881 43.8804 167.336 45.1073 167.336 46.3763Z" fill="#FFB0B1"/>
<path opacity="0.1" d="M176.594 64.2175C175.868 63.7707 175.277 63.1352 174.883 62.3788C174.584 61.7886 174.386 61.1071 173.876 60.6886C173.416 60.313 172.803 60.2218 172.23 60.0537C170.349 59.4974 168.771 57.7804 168.712 55.8201C168.683 54.8972 168.971 53.976 168.841 53.0621C168.767 52.5448 168.561 52.0552 168.243 51.6401C168.086 51.4416 167.913 51.2556 167.727 51.0839C167.476 50.8478 167.213 50.6189 166.984 50.3685C166.84 50.2134 166.714 50.0424 166.609 49.8587C166.524 49.7084 166.455 49.5495 166.403 49.3847C166.045 48.2901 166.371 46.9916 165.977 45.8845L165.956 45.8236C165.807 45.4302 165.505 45.0367 165.085 45.0063C164.665 44.9759 164.305 45.3246 163.904 45.4802C163.066 45.8058 162.161 45.2513 161.461 44.6861C160.762 44.1209 159.973 43.4752 159.084 43.6004C158.496 43.6845 158.031 44.0851 157.489 44.2926C157.366 44.34 157.24 44.3765 157.111 44.4017C157.57 43.2579 158.413 42.3096 159.495 41.7196C160.576 41.1296 161.83 40.9348 163.04 41.1686C164.25 41.4025 165.341 42.0504 166.125 43.0011C166.909 43.9517 167.337 45.1458 167.337 46.3781C167.337 46.7502 167.298 47.1214 167.22 47.4852C167.229 47.5103 167.238 47.5335 167.249 47.5586C167.457 48.0952 167.691 48.646 167.897 49.1218L168.907 50.0376C168.907 50.0376 169.336 50.3953 169.98 50.9319C171.381 52.1123 173.801 54.1907 175.049 55.4623C176.147 56.5856 176.491 60.939 176.594 64.2175Z" fill="black"/>
<path d="M157.426 41.0249C157.682 40.5044 157.809 39.9214 158.115 39.4277C158.564 38.7123 159.347 38.2544 160.152 37.9771C162.253 37.2528 166.695 36.2011 168.022 37.9771C168.283 38.3349 168.499 38.7319 168.861 38.9788C169.136 39.1666 169.469 39.2471 169.771 39.3884C170.617 39.7854 171.157 40.6511 171.445 41.5347C171.733 42.4182 171.819 43.3662 172.03 44.2766C172.3 45.4445 172.774 46.5517 173.246 47.6516C173.802 48.9502 174.393 50.297 175.466 51.2145C176.931 52.4665 177.254 54.239 178.614 55.6127C180.223 57.2438 180.172 59.9357 179.342 62.073C179.233 62.3538 179.109 62.6472 179.152 62.9459C179.195 63.2446 179.417 63.5164 179.626 63.7543L180.506 64.747C178.424 65.2496 176.069 64.1621 175.099 62.2537C174.8 61.6635 174.602 60.9838 174.09 60.5635C173.632 60.1879 173.017 60.0984 172.447 59.9303C170.565 59.3723 168.987 57.6534 168.928 55.6931C168.9 54.772 169.188 53.8509 169.057 52.9387C168.985 52.418 168.778 51.925 168.458 51.5078C167.966 50.8657 167.224 50.4347 166.823 49.7192C166.145 48.5227 166.661 46.9684 166.172 45.6842C166.022 45.2907 165.722 44.8972 165.301 44.8668C164.881 44.8364 164.521 45.1852 164.119 45.3408C163.282 45.6663 162.377 45.1136 161.678 44.5466C160.978 43.9797 160.189 43.3358 159.299 43.4628C158.71 43.545 158.247 43.9457 157.705 44.1549C157.304 44.3088 156.492 44.4465 156.142 44.1084C155.401 43.427 157.117 41.6616 157.426 41.0249Z" fill="#591D4B"/>
<path opacity="0.1" d="M175.597 61.6634C175.296 61.0732 175.1 60.3935 174.588 59.975C174.13 59.5994 173.515 59.5081 172.943 59.34C171.063 58.7838 169.485 57.0649 169.424 55.1046C169.396 54.1835 169.684 53.2606 169.555 52.3484C169.48 51.831 169.274 51.3415 168.956 50.9265C168.462 50.2844 167.72 49.8533 167.321 49.1379C166.643 47.9431 167.158 46.3888 166.668 45.1028C166.52 44.7111 166.217 44.3177 165.799 44.2855C165.38 44.2533 165.017 44.6056 164.617 44.7612C163.78 45.0868 162.873 44.5323 162.175 43.9671C161.478 43.4019 160.685 42.7562 159.796 42.8814C159.208 42.9655 158.743 43.3661 158.203 43.5736C157.802 43.7274 156.988 43.8669 156.638 43.5289C155.901 42.8135 157.616 41.0517 157.924 40.4185C158.18 39.8963 158.307 39.315 158.614 38.8213C158.63 38.7945 158.648 38.7677 158.666 38.7408C158.436 38.9315 158.237 39.1572 158.078 39.4098C157.772 39.9034 157.645 40.4829 157.389 41.007C157.08 41.6401 155.364 43.4073 156.103 44.1173C156.461 44.4572 157.266 44.3177 157.666 44.1638C158.203 43.9546 158.671 43.5539 159.26 43.4717C160.154 43.3447 160.941 43.9903 161.639 44.5555C162.336 45.1207 163.248 45.6752 164.082 45.3497C164.483 45.1941 164.833 44.8435 165.262 44.8757C165.692 44.9079 165.978 45.2996 166.133 45.6931C166.622 46.9773 166.107 48.5316 166.784 49.7281C167.185 50.4311 167.927 50.871 168.419 51.5167C168.739 51.9339 168.946 52.4269 169.018 52.9476C169.149 53.8598 168.861 54.7809 168.89 55.702C168.949 57.6695 170.526 59.3811 172.408 59.9392C172.975 60.1073 173.594 60.1967 174.051 60.5724C174.565 60.9927 174.767 61.6723 175.06 62.2626C176.03 64.171 178.385 65.2584 180.467 64.7559L180.052 64.2872C178.248 64.3141 176.421 63.2874 175.597 61.6634Z" fill="black"/>
<path opacity="0.1" d="M163.265 53.5003C163.031 53.858 162.36 55.6895 161.801 57.2885C161.277 57.0846 160.801 55.7843 160.801 55.7843L163.595 51.8101C163.881 52.2035 163.693 52.8564 163.265 53.5003Z" fill="black"/>
<path d="M163.374 53.393C163.14 53.7507 162.469 55.5822 161.909 57.1812C161.385 56.9791 160.909 55.677 160.909 55.677L163.703 51.7046C163.989 52.0963 163.801 52.7509 163.374 53.393Z" fill="#DCE7FF"/>
<path d="M147.129 71.6651L145.58 66.7805C145.562 66.7233 145.555 66.6631 145.56 66.6032C145.565 66.5434 145.582 66.4851 145.61 66.4317C145.637 66.3784 145.675 66.331 145.721 66.2923C145.767 66.2537 145.82 66.2244 145.877 66.2064C145.993 66.1704 146.117 66.1814 146.225 66.237C146.332 66.2926 146.413 66.3883 146.45 66.5033L147.999 71.3825L147.845 72.4038L147.129 71.6651Z" fill="#BE8B87"/>
<path opacity="0.1" d="M145.728 66.3514C145.843 66.3149 145.968 66.3256 146.076 66.3812C146.184 66.4369 146.265 66.5329 146.302 66.6483L147.851 71.5276L147.734 72.2931L147.847 72.4111L148.001 71.3898L146.443 66.5106C146.406 66.3956 146.325 66.2999 146.218 66.2443C146.111 66.1887 145.986 66.1777 145.871 66.2137C145.774 66.2451 145.69 66.3081 145.633 66.3925C145.663 66.3762 145.695 66.3625 145.728 66.3514Z" fill="white"/>
<path d="M147.129 71.6652L147.998 71.3898L147.871 72.2268L147.844 72.4111L147.59 72.1463L147.129 71.6652Z" fill="#EFC8C4"/>
<path d="M147.591 72.1463C147.606 72.1272 147.625 72.1114 147.646 72.0998C147.659 72.0919 147.673 72.0876 147.688 72.0876C147.703 72.0876 147.718 72.0919 147.73 72.0998C147.743 72.1145 147.753 72.1308 147.761 72.1481C147.773 72.1678 147.789 72.1847 147.808 72.1974C147.827 72.2101 147.849 72.2183 147.872 72.2214L147.845 72.4003L147.591 72.1463Z" fill="#727A9C"/>
<path d="M145.571 68.5155C145.571 68.5155 148.678 68.4976 147.947 69.8194C147.215 71.1412 146.072 71.3003 146.072 71.3003L145.571 68.5155Z" fill="#FFB0B1"/>
<path d="M126.249 9.1969H126.115C120.778 9.1969 116.058 12.0211 113.343 16.1885C110.627 12.0211 105.907 9.1969 100.57 9.1969H100.436C96.4307 9.23507 92.6022 10.8524 89.7826 13.6975C86.963 16.5425 85.3801 20.3854 85.3779 24.391C85.3779 29.365 87.5564 36.4228 91.8043 42.2303C99.8977 53.2963 113.343 62.978 113.343 62.978C113.343 62.978 126.787 53.2981 134.879 42.2303C139.129 36.4228 141.305 29.365 141.305 24.391C141.303 20.3857 139.72 16.5431 136.901 13.6981C134.082 10.8531 130.254 9.23554 126.249 9.1969ZM124.33 43.0817C123.722 43.0794 123.129 42.8933 122.629 42.548C122.129 42.2026 121.745 41.714 121.527 41.1465H118.336C118.126 41.1451 117.922 41.0783 117.751 40.9551C117.581 40.832 117.454 40.6588 117.386 40.4596L116.406 37.5067L113.305 48.3437C113.245 48.5524 113.118 48.7357 112.945 48.8664C112.771 48.997 112.56 49.0678 112.343 49.0681H112.28C112.053 49.0572 111.837 48.9688 111.668 48.8177C111.499 48.6667 111.387 48.4621 111.35 48.2382L108.154 29.0145L105.818 40.3899C105.764 40.606 105.64 40.7979 105.465 40.935C105.289 41.0722 105.073 41.1466 104.85 41.1465H100.356C100.221 41.1522 100.086 41.1305 99.9602 41.0829C99.834 41.0353 99.7188 40.9626 99.6214 40.8693C99.5241 40.776 99.4466 40.6639 99.3937 40.5399C99.3407 40.4159 99.3135 40.2824 99.3135 40.1475C99.3135 40.0127 99.3407 39.8792 99.3937 39.7552C99.4466 39.6311 99.5241 39.5191 99.6214 39.4258C99.7188 39.3324 99.834 39.2598 99.9602 39.2121C100.086 39.1645 100.221 39.1429 100.356 39.1486H104.063L107.372 23.8544C107.427 23.6283 107.558 23.428 107.743 23.2879C107.929 23.1478 108.157 23.0765 108.39 23.0862C108.622 23.0959 108.844 23.1861 109.017 23.3412C109.19 23.4963 109.304 23.7068 109.34 23.9367L112.604 43.5467L115.383 33.8508C115.441 33.6466 115.564 33.4666 115.732 33.3376C115.901 33.2087 116.106 33.1377 116.319 33.1354H116.338C116.549 33.1354 116.753 33.2019 116.924 33.3252C117.094 33.4485 117.221 33.6225 117.286 33.8222L119.059 39.154H121.488C121.66 38.6293 121.975 38.1626 122.396 37.8052C122.817 37.4479 123.329 37.2139 123.875 37.1291C124.42 37.0442 124.979 37.1119 125.489 37.3244C125.999 37.537 126.44 37.8863 126.764 38.3338C127.087 38.7813 127.281 39.3095 127.324 39.8603C127.366 40.411 127.256 40.9627 127.005 41.4546C126.754 41.9465 126.371 42.3595 125.9 42.6479C125.429 42.9362 124.888 43.0889 124.335 43.0889L124.33 43.0817Z" fill="#00B3A6"/>
</g>
<defs>
<linearGradient id="paint0_linear_1437_39470" x1="63.7326" y1="138.593" x2="63.7326" y2="28.5334" gradientUnits="userSpaceOnUse">
<stop stop-color="#808080" stop-opacity="0.25"/>
<stop offset="0.54" stop-color="#808080" stop-opacity="0.12"/>
<stop offset="1" stop-color="#808080" stop-opacity="0.1"/>
</linearGradient>
<linearGradient id="paint1_linear_1437_39470" x1="159.798" y1="137.201" x2="159.798" y2="36.6822" gradientUnits="userSpaceOnUse">
<stop stop-color="#808080" stop-opacity="0.25"/>
<stop offset="0.54" stop-color="#808080" stop-opacity="0.12"/>
<stop offset="1" stop-color="#808080" stop-opacity="0.1"/>
</linearGradient>
<clipPath id="clip0_1437_39470">
<rect width="197.646" height="140" fill="white"/>
</clipPath>
</defs>
</svg>
